<svg width="24" height="25" viewBox="0 0 24 25" fill="none" xmlns="http://www.w3.org/2000/svg">
<path d="M17 21.5003C15.3463 21.4988 13.7183 21.0901 12.26 20.3103L11.81 20.0603C8.70075 18.3886 6.15169 15.8395 4.48 12.7303L4.23 12.2803C3.42982 10.8137 3.00713 9.17097 3 7.50027V6.83027C2.99958 6.29723 3.21196 5.78607 3.59 5.41027L5.28 3.72027C5.44413 3.55487 5.67581 3.47515 5.90696 3.50453C6.13811 3.53391 6.34248 3.66907 6.46 3.87027L8.71 7.73027C8.93753 8.12316 8.87183 8.62003 8.55 8.94027L6.66 10.8303C6.50304 10.9855 6.46647 11.2253 6.57 11.4203L6.92 12.0803C8.17704 14.4087 10.0893 16.3175 12.42 17.5703L13.08 17.9303C13.275 18.0338 13.5148 17.9972 13.67 17.8403L15.56 15.9503C15.8802 15.6285 16.3771 15.5628 16.77 15.7903L20.63 18.0403C20.8312 18.1578 20.9664 18.3622 20.9957 18.5933C21.0251 18.8245 20.9454 19.0562 20.78 19.2203L19.09 20.9103C18.7142 21.2883 18.203 21.5007 17.67 21.5003H17Z" fill="#0D490D"/>
</svg>
