<svg width="24" height="24" viewBox="0 0 24 24" fill="none" xmlns="http://www.w3.org/2000/svg">
<path fill-rule="evenodd" clip-rule="evenodd" d="M9.52024 7.76662C9.33885 7.35303 9.13737 7.34298 8.96603 7.34298C8.81477 7.33294 8.65288 7.33294 8.48154 7.33294C8.32083 7.33294 8.04845 7.39321 7.81684 7.64549C7.58464 7.89719 6.95007 8.49217 6.95007 9.71167C6.95007 10.9318 7.83693 12.1111 7.95805 12.2724C8.07858 12.4337 9.67149 15.0139 12.192 16.0124C14.2883 16.839 14.712 16.6777 15.1657 16.6269C15.6189 16.5767 16.6275 16.0325 16.839 15.4476C17.0405 14.8733 17.0405 14.3693 16.9802 14.2682C16.9199 14.1678 16.748 14.1069 16.5064 13.9758C16.2541 13.8552 15.0446 13.2502 14.813 13.1693C14.5808 13.0889 14.4195 13.0487 14.2582 13.2904C14.0969 13.5427 13.623 14.0969 13.4724 14.2582C13.3306 14.4195 13.1799 14.4396 12.9377 14.3185C12.686 14.1979 11.8895 13.9356 10.9418 13.0889C10.2056 12.4331 9.71167 11.6171 9.56041 11.3755C9.41979 11.1232 9.54032 10.992 9.67149 10.8709C9.78257 10.7604 9.92378 10.579 10.0449 10.4378C10.1654 10.296 10.2056 10.1855 10.2966 10.0242C10.377 9.86292 10.3368 9.71167 10.2765 9.59114C10.2157 9.48006 9.74239 8.26056 9.52024 7.76662Z" fill="#5A8356" stroke="#5A8356" stroke-linejoin="round"/>
</svg>
