<svg width="146" height="146" viewBox="0 0 146 146" fill="none" xmlns="http://www.w3.org/2000/svg">
<g clip-path="url(#clip0_575_1154)">
<path d="M146 0H0V146H146V0Z" fill="white"/>
<path d="M85.9446 71.7299C73.6662 93.8615 67.0846 112.399 67.0846 112.399C52.8785 87.0005 28.1084 77.4479 28.1084 77.4479C48.8827 76.6819 63.9548 87.7144 63.9548 87.7144C77.9966 61.8977 100.487 36.2283 116.657 27.4281C116.657 27.4281 97.7034 50.5348 85.9446 71.7299Z" fill="#0D490D"/>
<path d="M130.189 60.4197C128.723 54.4751 126.33 48.7567 123.132 43.5231L119.827 45.5808C122.882 50.4323 125.197 55.7543 126.65 61.3128C128.086 66.8702 128.662 72.6567 128.362 78.4057C127.763 89.8677 123.528 101.33 116.318 110.289C114.514 112.549 112.56 114.692 110.438 116.663C108.305 118.622 106.032 120.427 103.639 122.061L101.817 123.247C87.4837 132.579 69.6104 133.589 53.5874 128.674C52.8897 128.46 52.2147 128.183 51.5339 127.922C46.7589 126.077 42.2704 123.58 38.1471 120.549C35.7997 118.806 33.6007 116.866 31.5377 114.792C25.3137 108.536 20.7899 100.794 17.9142 92.4833C17.0178 89.6891 16.3077 86.8328 15.8269 83.9328C15.3765 81.0288 15.1227 78.0945 15.0801 75.1516C15.0319 69.2676 15.8814 63.3706 17.6212 57.7375C19.3567 52.1033 21.9771 46.7373 25.3534 41.8889C28.7274 37.0388 32.8544 32.706 37.5456 29.093C39.3431 27.7074 41.2241 26.429 43.1741 25.2641C51.0533 20.8364 57.8656 18.9993 59.9294 19.1779C59.9294 19.1779 48.7861 22.4364 41.8774 29.1796C41.8774 29.1796 45.3513 34.5541 52.2498 33.2596C60.3868 31.7339 61.2628 23.334 72.1252 18.7009C72.1252 18.7009 64.2583 10.9264 53.8752 12.586C47.7116 13.5715 40.6062 19.1365 40.3507 25.8184C40.3354 26.162 40.3449 26.4939 40.3734 26.8156C39.3609 27.4792 38.3678 28.1729 37.3986 28.8993C32.6385 32.4627 28.4252 36.7641 24.956 41.6081C21.4849 46.4502 18.7608 51.8356 16.9253 57.5175C15.0854 63.1983 14.1396 69.1712 14.107 75.1533C14.1092 78.1451 14.3262 81.1354 14.7453 84.1012C15.1947 87.063 15.8787 89.9869 16.7557 92.8536C19.3268 101.257 24.19 109.518 30.4045 115.895C32.4852 118.045 34.7093 120.062 37.0894 121.884C41.8207 125.505 47.2485 128.671 52.9437 130.511C70.5182 136.187 89.4632 134.18 105.123 124.289C107.653 122.612 110.062 120.753 112.327 118.728C114.582 116.69 116.666 114.468 118.595 112.118C120.533 109.773 122.25 107.248 123.79 104.623C124.582 103.322 125.26 101.957 125.954 100.602C129.332 94.0007 131.144 86.0872 131.762 78.6201C132.165 72.5294 131.64 66.3687 130.189 60.4197Z" fill="#0D490D"/>
</g>
<defs>
<clipPath id="clip0_575_1154">
<rect width="146" height="146" fill="white"/>
</clipPath>
</defs>
</svg>
