<svg viewBox="0 0 202 57" fill="none" xmlns="http://www.w3.org/2000/svg">
<g clip-path="url(#clip0_1585_3756)">
<path d="M58 54.7777C39.522 49.7702 30.8367 30.5451 43.4077 18.0308C55.4803 6.00711 43.2969 -9.39512 31.2798 7.39553C24.0898 17.4477 19.6687 48.6872 58 54.7777Z" fill="#5876B3"/>
<path d="M24.9849 53.769C13.6876 53.7505 9.05425 48.493 7.65132 44.1982C6.19301 39.746 -1.54155 42.5413 0.276714 47.7155C2.76876 54.7872 16.6596 56.0183 24.9849 53.769Z" fill="#5A8356"/>
<path d="M49.3794 54.8238C36.107 53.8982 19.9179 45.7435 24.3021 35.7099C28.5108 26.0835 13.5309 19.2895 11.2234 31.7575C9.83897 39.2272 15.9952 56.9712 49.3794 54.8238Z" fill="#F2E157"/>
</g>
<path d="M60.7074 0.621693V9.74868H58V0.621693H60.7074ZM63.7893 0.621693V2.28836H60.5922V0.621693H63.7893ZM66.3383 0.621693V9.74868H63.6309V0.621693H66.3383Z" fill="#0D490D"/>
<path d="M76.1605 0.621693V2.28836H72.7474C72.2289 2.28836 71.9553 2.51764 71.9265 2.97619C71.8785 3.45238 71.8305 3.91534 71.7825 4.36508C71.7441 4.806 71.6913 5.22928 71.6241 5.63492C71.5665 6.03175 71.4993 6.40653 71.4224 6.75926C71.3456 7.10318 71.2544 7.41182 71.1488 7.68519C70.9376 8.31129 70.6496 8.79189 70.2847 9.12698C69.9295 9.46208 69.5119 9.67813 69.0318 9.77513C68.5518 9.87213 68.0237 9.88095 67.4477 9.80159L67.2461 7.8836C67.5725 7.83069 67.8557 7.75573 68.0957 7.65873C68.3454 7.55291 68.5326 7.33686 68.6574 7.01058C68.7342 6.84303 68.7966 6.65785 68.8446 6.45503C68.9022 6.24339 68.955 6.01411 69.003 5.7672C69.051 5.51146 69.0942 5.23369 69.1326 4.93386C69.1806 4.62522 69.219 4.29453 69.2479 3.9418C69.2863 3.58025 69.3247 3.18783 69.3631 2.76455C69.4687 1.33598 70.2895 0.621693 71.8257 0.621693H76.1605ZM76.3765 0.621693V9.74868H73.669V0.621693H76.3765Z" fill="#0D490D"/>
<path d="M83.3649 0.621693C83.5858 0.621693 83.7778 0.679012 83.941 0.793651C84.1138 0.908289 84.229 1.06702 84.2866 1.26984L87.0085 9.74868H84.2434L82.5009 3.45238C82.4625 3.30247 82.4289 3.14374 82.4 2.97619C82.3712 2.79982 82.3424 2.63668 82.3136 2.48677H81.9248C81.9056 2.63668 81.8768 2.79982 81.8384 2.97619C81.8096 3.14374 81.776 3.30247 81.7376 3.45238L79.995 9.74868H77.23L79.9518 1.26984C80.0094 1.06702 80.1198 0.908289 80.2831 0.793651C80.4559 0.679012 80.6527 0.621693 80.8735 0.621693H83.3649ZM84.7331 5.79365V7.57937H79.5054V5.79365H84.7331Z" fill="#0D490D"/>
<path d="M91.8949 0.621693V9.74868H89.1874V0.621693H91.8949ZM94.7607 0.621693V2.51323H86.3072V0.621693H94.7607Z" fill="#0D490D"/>
<path d="M101.173 1.11111C102.268 1.11111 103.19 1.17284 103.938 1.2963C104.687 1.41975 105.292 1.6358 105.753 1.94444C106.214 2.24427 106.545 2.64991 106.747 3.16138C106.958 3.66402 107.063 4.29894 107.063 5.06614C107.063 5.79806 106.958 6.41534 106.747 6.91799C106.545 7.41182 106.214 7.80423 105.753 8.09524C105.292 8.37743 104.687 8.58466 103.938 8.71693C103.19 8.84039 102.268 8.90212 101.173 8.90212C100.079 8.90212 99.1524 8.84039 98.3939 8.71693C97.645 8.58466 97.045 8.37743 96.5938 8.09524C96.1425 7.80423 95.8113 7.41182 95.6001 6.91799C95.3984 6.41534 95.2976 5.79806 95.2976 5.06614C95.2976 4.29894 95.3984 3.66402 95.6001 3.16138C95.8113 2.64991 96.1425 2.24427 96.5938 1.94444C97.045 1.6358 97.645 1.41975 98.3939 1.2963C99.1524 1.17284 100.079 1.11111 101.173 1.11111ZM101.173 2.87037C100.501 2.87037 99.9588 2.90123 99.546 2.96296C99.1332 3.01587 98.8163 3.12169 98.5955 3.28042C98.3747 3.43034 98.2211 3.65079 98.1347 3.9418C98.0483 4.2328 98.0051 4.60758 98.0051 5.06614C98.0051 5.49824 98.0483 5.85097 98.1347 6.12434C98.2211 6.39771 98.3747 6.60935 98.5955 6.75926C98.8163 6.90035 99.1332 6.99735 99.546 7.05026C99.9588 7.10317 100.501 7.12963 101.173 7.12963C101.836 7.12963 102.373 7.10317 102.786 7.05026C103.199 6.99735 103.516 6.90035 103.737 6.75926C103.967 6.60935 104.126 6.39771 104.212 6.12434C104.298 5.85097 104.342 5.49824 104.342 5.06614C104.342 4.60758 104.298 4.2328 104.212 3.9418C104.126 3.65079 103.967 3.43034 103.737 3.28042C103.516 3.12169 103.199 3.01587 102.786 2.96296C102.373 2.90123 101.836 2.87037 101.173 2.87037ZM102.527 0V2.05026L102.412 2.5V7.51323L102.527 8.06878V10H99.8196V8.06878L99.9492 7.51323V2.5L99.8196 2.05026V0H102.527Z" fill="#0D490D"/>
<path d="M112.551 0.436508C113.377 0.436508 114.073 0.511464 114.639 0.661376C115.206 0.811288 115.667 1.06702 116.022 1.42857C116.377 1.78131 116.631 2.2619 116.785 2.87037C116.939 3.47884 117.015 4.25044 117.015 5.18518C117.015 6.11111 116.939 6.88272 116.785 7.5C116.631 8.10847 116.377 8.59347 116.022 8.95503C115.667 9.30776 115.206 9.55908 114.639 9.70899C114.073 9.85891 113.377 9.93386 112.551 9.93386C111.735 9.93386 111.039 9.85891 110.463 9.70899C109.896 9.55908 109.436 9.30776 109.08 8.95503C108.725 8.59347 108.471 8.10847 108.317 7.5C108.163 6.88272 108.087 6.11111 108.087 5.18518C108.087 4.25044 108.163 3.47884 108.317 2.87037C108.471 2.2619 108.725 1.78131 109.08 1.42857C109.436 1.06702 109.896 0.811288 110.463 0.661376C111.039 0.511464 111.735 0.436508 112.551 0.436508ZM112.551 2.32804C112.129 2.32804 111.797 2.40741 111.557 2.56614C111.327 2.72487 111.164 3.01146 111.068 3.42593C110.972 3.84039 110.924 4.42681 110.924 5.18518C110.924 5.94356 110.972 6.52998 111.068 6.94444C111.164 7.35891 111.327 7.6455 111.557 7.80423C111.797 7.96296 112.129 8.04233 112.551 8.04233C112.973 8.04233 113.3 7.96296 113.53 7.80423C113.77 7.6455 113.934 7.35891 114.02 6.94444C114.116 6.52998 114.164 5.94356 114.164 5.18518C114.164 4.42681 114.116 3.84039 114.02 3.42593C113.934 3.01146 113.77 2.72487 113.53 2.56614C113.3 2.40741 112.973 2.32804 112.551 2.32804Z" fill="#0D490D"/>
<path d="M122.52 0.489418C123.519 0.489418 124.296 0.582011 124.853 0.767196C125.42 0.943563 125.823 1.2522 126.063 1.69312C126.303 2.13404 126.423 2.75132 126.423 3.54497C126.423 4.33862 126.308 4.95591 126.077 5.39683C125.857 5.82892 125.487 6.13316 124.968 6.30952C124.45 6.48589 123.754 6.57407 122.88 6.57407C122.419 6.57407 121.959 6.55644 121.498 6.52116C121.046 6.47707 120.624 6.42416 120.23 6.36243C119.837 6.29189 119.501 6.22134 119.222 6.15079C118.944 6.07143 118.752 6.00529 118.646 5.95238L118.689 4.78836C119.285 4.78836 119.904 4.78836 120.547 4.78836C121.191 4.78836 121.824 4.78836 122.448 4.78836C122.784 4.77954 123.043 4.74427 123.226 4.68254C123.408 4.61199 123.533 4.48854 123.6 4.31217C123.677 4.12698 123.716 3.87125 123.716 3.54497C123.716 3.20988 123.677 2.94974 123.6 2.76455C123.533 2.57937 123.408 2.45591 123.226 2.39418C123.043 2.32363 122.784 2.28836 122.448 2.28836C121.517 2.28836 120.72 2.29277 120.058 2.30159C119.395 2.31041 118.944 2.32804 118.704 2.3545L118.488 0.621693C118.91 0.577601 119.309 0.546737 119.683 0.529101C120.058 0.511464 120.466 0.502645 120.907 0.502645C121.349 0.493827 121.887 0.489418 122.52 0.489418ZM121.195 0.621693V9.74868H118.488V0.621693H121.195Z" fill="#0D490D"/>
<path d="M138.243 0.621693C138.857 0.621693 139.174 0.912698 139.193 1.49471L139.568 9.74868H137.105L136.788 2.5H136.558L135.29 7.61905C135.204 8.13051 134.858 8.38624 134.254 8.38624H132.756C132.161 8.38624 131.805 8.13051 131.69 7.61905L130.423 2.5H130.192L129.919 9.74868H127.471L127.816 1.49471C127.845 0.912698 128.167 0.621693 128.781 0.621693H131.2C131.777 0.621693 132.122 0.881834 132.237 1.40212L133.202 5.46296C133.25 5.6746 133.289 5.89506 133.317 6.12434C133.356 6.3448 133.389 6.56966 133.418 6.79894H133.577C133.615 6.56966 133.649 6.3448 133.677 6.12434C133.706 5.89506 133.745 5.67019 133.793 5.44974L134.743 1.40212C134.849 0.881834 135.194 0.621693 135.78 0.621693H138.243Z" fill="#0D490D"/>
<path d="M146.356 0.621693C146.577 0.621693 146.769 0.679012 146.933 0.793651C147.105 0.908289 147.221 1.06702 147.278 1.26984L150 9.74868H147.235L145.492 3.45238C145.454 3.30247 145.42 3.14374 145.392 2.97619C145.363 2.79982 145.334 2.63668 145.305 2.48677H144.916C144.897 2.63668 144.868 2.79982 144.83 2.97619C144.801 3.14374 144.768 3.30247 144.729 3.45238L142.987 9.74868H140.222L142.943 1.26984C143.001 1.06702 143.111 0.908289 143.275 0.793651C143.447 0.679012 143.644 0.621693 143.865 0.621693H146.356ZM147.725 5.79365V7.57937H142.497V5.79365H147.725Z" fill="#0D490D"/>
<path d="M60.2362 18.1532C60.781 18.1532 61.34 18.1532 61.9134 18.1532C62.4964 18.1532 63.065 18.1671 63.6193 18.195C64.1831 18.2136 64.6992 18.2507 65.1675 18.3064L65.0528 20.1727H61.34C61.1298 20.1727 60.9673 20.2284 60.8526 20.3398C60.7475 20.442 60.695 20.5859 60.695 20.7716V25.2284C60.695 25.4141 60.7475 25.5627 60.8526 25.6741C60.9673 25.7762 61.1298 25.8273 61.34 25.8273H65.0528L65.1675 27.6936C64.6992 27.74 64.1831 27.7772 63.6193 27.805C63.065 27.8236 62.4964 27.8329 61.9134 27.8329C61.34 27.8422 60.781 27.8468 60.2362 27.8468C59.5768 27.8468 59.0369 27.6565 58.6164 27.2758C58.2055 26.8951 58 26.3983 58 25.7855V20.2145C58 19.5924 58.2055 19.0956 58.6164 18.7242C59.0369 18.3435 59.5768 18.1532 60.2362 18.1532ZM58.258 21.9694H64.5224V23.7382H58.258V21.9694Z" fill="#0D490D"/>
<path d="M74.6983 18.195C74.4785 18.8914 74.2921 19.4856 74.1392 19.9777C73.9863 20.4698 73.8382 20.883 73.6948 21.2173C73.5515 21.5515 73.389 21.8254 73.2074 22.039C73.0354 22.2433 72.8204 22.4011 72.5624 22.5125C72.3043 22.624 71.9794 22.7029 71.5876 22.7493V22.8329C71.9985 22.8886 72.3378 22.9721 72.6054 23.0836C72.8825 23.1857 73.1166 23.3482 73.3078 23.571C73.5085 23.7846 73.69 24.0724 73.8525 24.4345C74.015 24.7967 74.1822 25.2516 74.3542 25.7994C74.5262 26.3473 74.7365 27.0158 74.985 27.805H72.1753C71.9173 26.9322 71.7023 26.2266 71.5303 25.688C71.3678 25.1402 71.2053 24.7224 71.0429 24.4345C70.8804 24.1467 70.6893 23.9517 70.4695 23.8496C70.2592 23.7382 69.9821 23.6825 69.638 23.6825L69.595 21.9415C69.9486 21.9415 70.2353 21.8812 70.4551 21.7604C70.6749 21.6397 70.8613 21.4401 71.0142 21.1616C71.1671 20.8737 71.3152 20.4884 71.4586 20.0056C71.6019 19.5227 71.7739 18.9192 71.9746 18.195H74.6983ZM69.2367 18.195V20.7577C69.2367 21.0919 69.2032 21.4355 69.1363 21.7883C69.079 22.1318 68.9882 22.4568 68.864 22.7632C68.9595 23.0511 69.0455 23.3621 69.122 23.6964C69.1984 24.0214 69.2367 24.3185 69.2367 24.5877V27.805H66.556V18.195H69.2367ZM70.2975 21.9415V23.6825H68.5773V21.9415H70.2975Z" fill="#0D490D"/>
<path d="M80.0068 18C80.8286 18 81.5215 18.0789 82.0853 18.2368C82.6492 18.3946 83.1079 18.6639 83.4615 19.0446C83.8151 19.416 84.0683 19.922 84.2212 20.5627C84.3741 21.2033 84.4506 22.0158 84.4506 23C84.4506 23.9749 84.3741 24.7874 84.2212 25.4373C84.0683 26.078 83.8151 26.5887 83.4615 26.9694C83.1079 27.3408 82.6492 27.6054 82.0853 27.7632C81.5215 27.9211 80.8286 28 80.0068 28C79.1945 28 78.5016 27.9211 77.9282 27.7632C77.3644 27.6054 76.9057 27.3408 76.5521 26.9694C76.1985 26.5887 75.9452 26.078 75.7923 25.4373C75.6394 24.7874 75.563 23.9749 75.563 23C75.563 22.0158 75.6394 21.2033 75.7923 20.5627C75.9452 19.922 76.1985 19.416 76.5521 19.0446C76.9057 18.6639 77.3644 18.3946 77.9282 18.2368C78.5016 18.0789 79.1945 18 80.0068 18ZM80.0068 19.9916C79.5863 19.9916 79.2566 20.0752 79.0177 20.2423C78.7883 20.4095 78.6258 20.7112 78.5303 21.1476C78.4347 21.584 78.3869 22.2015 78.3869 23C78.3869 23.7985 78.4347 24.416 78.5303 24.8524C78.6258 25.2888 78.7883 25.5905 79.0177 25.7577C79.2566 25.9248 79.5863 26.0084 80.0068 26.0084C80.4273 26.0084 80.7522 25.9248 80.9816 25.7577C81.2205 25.5905 81.3829 25.2888 81.4689 24.8524C81.5645 24.416 81.6123 23.7985 81.6123 23C81.6123 22.2015 81.5645 21.584 81.4689 21.1476C81.3829 20.7112 81.2205 20.4095 80.9816 20.2423C80.7522 20.0752 80.4273 19.9916 80.0068 19.9916Z" fill="#0D490D"/>
<path d="M89.9587 23.4735V25.0056H85.7299V23.4735H89.9587Z" fill="#0D490D"/>
<path d="M93.7077 18.1532C94.2524 18.1532 94.8115 18.1532 95.3849 18.1532C95.9678 18.1532 96.5365 18.1671 97.0907 18.195C97.6546 18.2136 98.1706 18.2507 98.6389 18.3064L98.5242 20.1727H94.8115C94.6012 20.1727 94.4388 20.2284 94.3241 20.3398C94.219 20.442 94.1664 20.5859 94.1664 20.7716V25.2284C94.1664 25.4141 94.219 25.5627 94.3241 25.6741C94.4388 25.7762 94.6012 25.8273 94.8115 25.8273H98.5242L98.6389 27.6936C98.1706 27.74 97.6546 27.7772 97.0907 27.805C96.5365 27.8236 95.9678 27.8329 95.3849 27.8329C94.8115 27.8422 94.2524 27.8468 93.7077 27.8468C93.0483 27.8468 92.5083 27.6565 92.0879 27.2758C91.6769 26.8951 91.4715 26.3983 91.4715 25.7855V20.2145C91.4715 19.5924 91.6769 19.0956 92.0879 18.7242C92.5083 18.3435 93.0483 18.1532 93.7077 18.1532ZM91.7295 21.9694H97.9938V23.7382H91.7295V21.9694Z" fill="#0D490D"/>
<path d="M102.722 18.195V27.805H100.027V18.195H102.722ZM105.833 21.7604V23.6407H102.608V21.7604H105.833ZM108.37 18.195V27.805H105.675V18.195H108.37Z" fill="#0D490D"/>
<path d="M112.326 18.1532C112.871 18.1532 113.43 18.1532 114.003 18.1532C114.586 18.1532 115.155 18.1671 115.709 18.195C116.273 18.2136 116.789 18.2507 117.257 18.3064L117.143 20.1727H113.43C113.22 20.1727 113.057 20.2284 112.943 20.3398C112.838 20.442 112.785 20.5859 112.785 20.7716V25.2284C112.785 25.4141 112.838 25.5627 112.943 25.6741C113.057 25.7762 113.22 25.8273 113.43 25.8273H117.143L117.257 27.6936C116.789 27.74 116.273 27.7772 115.709 27.805C115.155 27.8236 114.586 27.8329 114.003 27.8329C113.43 27.8422 112.871 27.8468 112.326 27.8468C111.667 27.8468 111.127 27.6565 110.706 27.2758C110.296 26.8951 110.09 26.3983 110.09 25.7855V20.2145C110.09 19.5924 110.296 19.0956 110.706 18.7242C111.127 18.3435 111.667 18.1532 112.326 18.1532ZM110.348 21.9694H116.612V23.7382H110.348V21.9694Z" fill="#0D490D"/>
<path d="M122.646 18.0557C123.639 18.0557 124.413 18.1532 124.968 18.3482C125.532 18.5339 125.933 18.8589 126.172 19.3231C126.411 19.7874 126.53 20.4373 126.53 21.273C126.53 22.1086 126.416 22.7586 126.186 23.2228C125.966 23.6778 125.599 23.9981 125.082 24.1838C124.566 24.3695 123.874 24.4624 123.004 24.4624C122.545 24.4624 122.086 24.4438 121.628 24.4067C121.179 24.3603 120.758 24.3045 120.366 24.2396C119.974 24.1653 119.64 24.091 119.363 24.0167C119.086 23.9331 118.895 23.8635 118.789 23.8078L118.832 22.5822C119.425 22.5822 120.041 22.5822 120.682 22.5822C121.322 22.5822 121.953 22.5822 122.574 22.5822C122.908 22.5729 123.166 22.5357 123.348 22.4708C123.53 22.3965 123.654 22.2665 123.721 22.0808C123.797 21.8858 123.835 21.6165 123.835 21.273C123.835 20.9201 123.797 20.6462 123.721 20.4513C123.654 20.2563 123.53 20.1263 123.348 20.0613C123.166 19.987 122.908 19.9499 122.574 19.9499C121.647 19.9499 120.854 19.9545 120.194 19.9638C119.535 19.9731 119.086 19.9916 118.847 20.0195L118.632 18.195C119.052 18.1486 119.449 18.1161 119.822 18.0975C120.194 18.0789 120.6 18.0696 121.04 18.0696C121.48 18.0604 122.015 18.0557 122.646 18.0557ZM121.327 18.195V27.805H118.632V18.195H121.327Z" fill="#0D490D"/>
<path d="M129.91 18.1532C130.693 18.1532 131.496 18.1578 132.318 18.1671C133.149 18.1764 133.895 18.2275 134.554 18.3203L134.425 20.1727H131.085C130.875 20.1727 130.708 20.2284 130.583 20.3398C130.469 20.442 130.411 20.5905 130.411 20.7855V27.805H127.716V20.2563C127.716 19.6249 127.922 19.1188 128.333 18.7382C128.744 18.3482 129.269 18.1532 129.91 18.1532Z" fill="#0D490D"/>
<path d="M137.706 18.1532C138.251 18.1532 138.81 18.1532 139.384 18.1532C139.966 18.1532 140.535 18.1671 141.089 18.195C141.653 18.2136 142.169 18.2507 142.638 18.3064L142.523 20.1727H138.81C138.6 20.1727 138.437 20.2284 138.323 20.3398C138.218 20.442 138.165 20.5859 138.165 20.7716V25.2284C138.165 25.4141 138.218 25.5627 138.323 25.6741C138.437 25.7762 138.6 25.8273 138.81 25.8273H142.523L142.638 27.6936C142.169 27.74 141.653 27.7772 141.089 27.805C140.535 27.8236 139.966 27.8329 139.384 27.8329C138.81 27.8422 138.251 27.8468 137.706 27.8468C137.047 27.8468 136.507 27.6565 136.087 27.2758C135.676 26.8951 135.47 26.3983 135.47 25.7855V20.2145C135.47 19.5924 135.676 19.0956 136.087 18.7242C136.507 18.3435 137.047 18.1532 137.706 18.1532ZM135.728 21.9694H141.992V23.7382H135.728V21.9694Z" fill="#0D490D"/>
<path d="M148.857 18.195V27.805H146.162V18.195H148.857ZM151.71 18.195V20.1866H143.295V18.195H151.71Z" fill="#0D490D"/>
<path d="M161.361 18.195V27.805H158.809V22.805C158.809 22.5636 158.824 22.3268 158.852 22.0947C158.881 21.8626 158.915 21.6305 158.953 21.3983H158.852C158.776 21.6397 158.69 21.8765 158.594 22.1086C158.499 22.3315 158.389 22.5543 158.265 22.7772L155.398 27.805H152.817V18.195H155.369V23.0557C155.369 23.2878 155.355 23.5292 155.326 23.7799C155.307 24.0306 155.278 24.2813 155.24 24.532H155.326C155.412 24.2906 155.508 24.0539 155.613 23.8217C155.718 23.5803 155.828 23.3575 155.942 23.1532L158.795 18.195H161.361Z" fill="#0D490D"/>
<path d="M165.542 18.195V21.6908C165.542 21.9879 165.609 22.2015 165.742 22.3315C165.876 22.4615 166.134 22.5265 166.516 22.5265C166.717 22.5265 166.918 22.5172 167.118 22.4986C167.329 22.48 167.553 22.4429 167.792 22.3872C168.041 22.3315 168.313 22.2479 168.609 22.1365L168.882 23.7521C168.528 23.9471 168.146 24.1188 167.735 24.2674C167.333 24.4067 166.942 24.5135 166.559 24.5877C166.177 24.6527 165.833 24.6852 165.527 24.6852C164.61 24.6852 163.936 24.4903 163.506 24.1003C163.076 23.701 162.861 23.0882 162.861 22.2618V18.195H165.542ZM171.089 18.195V27.805H168.394V18.195H171.089Z" fill="#0D490D"/>
<path d="M175.601 18.195V27.805H172.906V18.195H175.601ZM178.712 21.7604V23.6407H175.486V21.7604H178.712ZM181.249 18.195V27.805H178.554V18.195H181.249Z" fill="#0D490D"/>
<path d="M191.627 18.195V27.805H189.075V22.805C189.075 22.5636 189.09 22.3268 189.118 22.0947C189.147 21.8626 189.18 21.6305 189.219 21.3983H189.118C189.042 21.6397 188.956 21.8765 188.86 22.1086C188.765 22.3315 188.655 22.5543 188.53 22.7772L185.663 27.805H183.083V18.195H185.635V23.0557C185.635 23.2878 185.62 23.5292 185.592 23.7799C185.573 24.0306 185.544 24.2813 185.506 24.532H185.592C185.678 24.2906 185.773 24.0539 185.878 23.8217C185.984 23.5803 186.094 23.3575 186.208 23.1532L189.061 18.195H191.627Z" fill="#0D490D"/>
<path d="M201.814 18.195L199.477 22.8886L202 27.805H199.305L196.968 22.8886L199.133 18.195H201.814ZM195.449 18.195L197.599 22.8886L195.263 27.805H192.568L195.091 22.8886L192.768 18.195H195.449ZM198.517 22.1086V23.6128H195.865V22.1086H198.517Z" fill="#0D490D"/>
<path d="M60.9335 36.1037V45.0436H58V36.1037H60.9335Z" fill="#0D490D"/>
<path d="M65.9245 36.1037V45.0436H62.9595V36.1037H65.9245ZM69.347 39.4205V41.1696H65.7984V39.4205H69.347ZM72.1386 36.1037V45.0436H69.1735V36.1037H72.1386Z" fill="#0D490D"/>
<path d="M77.0903 36.1037V45.0436H74.1567V36.1037H77.0903Z" fill="#0D490D"/>
<path d="M79.1162 45.0436V36.1037H82.0812V45.0436H79.1162ZM81.9551 45.0436V43.4111H89.2574V45.0436H81.9551ZM85.0621 45.0436V36.1037H88.0272V45.0436H85.0621ZM87.1282 47L86.8916 44.9529H89.2574V47H87.1282Z" fill="#0D490D"/>
<path d="M93.4626 36.1037V45.0436H90.5291V36.1037H93.4626Z" fill="#0D490D"/>
<path d="M101.119 36.1037C101.361 36.1037 101.571 36.1598 101.75 36.2721C101.939 36.3844 102.065 36.5399 102.128 36.7385L105.109 45.0436H102.081L100.173 38.8763C100.131 38.7295 100.094 38.574 100.062 38.4099C100.031 38.2371 99.9992 38.0773 99.9677 37.9305H99.5418C99.5208 38.0773 99.4893 38.2371 99.4472 38.4099C99.4157 38.574 99.3789 38.7295 99.3368 38.8763L97.4284 45.0436H94.4003L97.3811 36.7385C97.4442 36.5399 97.5651 36.3844 97.7439 36.2721C97.9331 36.1598 98.1487 36.1037 98.3905 36.1037H101.119ZM102.617 41.1696V42.9187H96.8922V41.1696H102.617Z" fill="#0D490D"/>
<path d="M110.461 36.1037V45.0436H107.496V36.1037H110.461ZM113.599 36.1037V37.9564H104.341V36.1037H113.599Z" fill="#0D490D"/>
<path d="M124.218 36.1037V45.0436H121.411V40.3922C121.411 40.1676 121.426 39.9474 121.458 39.7314C121.489 39.5155 121.526 39.2996 121.568 39.0836H121.458C121.374 39.3082 121.279 39.5285 121.174 39.7444C121.069 39.9517 120.948 40.159 120.811 40.3663L117.657 45.0436H114.818V36.1037H117.625V40.6254C117.625 40.8414 117.61 41.066 117.578 41.2992C117.557 41.5324 117.526 41.7656 117.483 41.9988H117.578C117.673 41.7742 117.778 41.554 117.894 41.338C118.009 41.1135 118.13 40.9062 118.256 40.7161L121.395 36.1037H124.218Z" fill="#0D490D"/>
<path d="M130.647 36C131.635 36 132.419 36.0691 132.997 36.2073C133.586 36.3369 134.006 36.5701 134.259 36.9069C134.511 37.2438 134.637 37.7189 134.637 38.3322C134.637 38.9713 134.485 39.4594 134.18 39.7962C133.885 40.1245 133.391 40.3145 132.697 40.3663V40.4441C133.549 40.5045 134.143 40.7377 134.48 41.1437C134.827 41.541 135 42.0982 135 42.8151C135 43.4283 134.863 43.9034 134.59 44.2403C134.327 44.5772 133.912 44.8147 133.344 44.9529C132.787 45.0825 132.061 45.1472 131.167 45.1472C130.421 45.1472 129.769 45.1429 129.212 45.1343C128.655 45.1343 128.139 45.1256 127.666 45.1084C127.193 45.0911 126.709 45.0695 126.215 45.0436L126.468 43.4111C126.73 43.4197 127.24 43.4283 127.997 43.437C128.754 43.4456 129.632 43.4499 130.631 43.4499C131.01 43.4499 131.299 43.424 131.499 43.3722C131.709 43.3117 131.851 43.1995 131.925 43.0353C132.009 42.8712 132.051 42.638 132.051 42.3357C132.051 42.0161 132.009 41.7699 131.925 41.5972C131.84 41.4244 131.693 41.3078 131.483 41.2474C131.283 41.1782 130.989 41.1437 130.6 41.1437H126.452V39.6796H130.584C130.899 39.6796 131.146 39.6537 131.325 39.6019C131.504 39.5501 131.63 39.4507 131.704 39.3039C131.777 39.157 131.814 38.9454 131.814 38.669C131.814 38.4013 131.777 38.1983 131.704 38.0601C131.63 37.9219 131.499 37.8269 131.309 37.775C131.12 37.7232 130.852 37.6973 130.505 37.6973C129.874 37.6973 129.322 37.6973 128.849 37.6973C128.376 37.6887 127.945 37.6887 127.556 37.6973C127.177 37.6973 126.815 37.7102 126.468 37.7362L126.215 36.1037C126.667 36.0691 127.104 36.0475 127.524 36.0389C127.955 36.0216 128.418 36.013 128.912 36.013C129.417 36.0043 129.995 36 130.647 36ZM129.101 36.1037V45.0436H126.215V36.1037H129.101Z" fill="#0D490D"/>
<path d="M63 51H202L197.5 57H58L63 51Z" fill="#0D490D"/>
<defs>
<clipPath id="clip0_1585_3756">
<rect width="58" height="55" fill="white" transform="matrix(-1 0 0 1 58 0)"/>
</clipPath>
</defs>
</svg>
