<svg width="24" height="24" viewBox="0 0 24 24" fill="none" xmlns="http://www.w3.org/2000/svg">
<path d="M4.48434 3.47282C4.91099 3.0382 5.42694 2.70258 5.99578 2.4887L6.00559 2.48495C6.56381 2.26786 7.22165 2.10843 8.2445 2.06167C9.33671 2.01184 9.67508 2 12.5063 2C15.3374 2 15.6757 2.01252 16.7676 2.06168L16.4921 2.06168C16.5798 2.06552 16.6712 2.06964 16.7685 2.07406C17.8866 2.12531 18.5396 2.31537 19.0031 2.49654C19.6102 2.73179 20.0678 3.02999 20.525 3.48627C20.9831 3.94437 21.2811 4.40322 21.5162 5.00992C21.6959 5.47168 21.8871 6.12427 21.9385 7.24405C21.9896 8.36684 22 8.71472 22 11.5063C22 14.2978 21.9896 14.6454 21.9385 15.7682C21.8875 16.8808 21.699 17.5331 21.5187 17.9961C21.3046 18.573 20.9655 19.0953 20.5257 19.5256C20.0953 19.9657 19.5727 20.305 18.9954 20.519C18.5341 20.6979 17.8825 20.8874 16.7685 20.9385C15.6457 20.9896 15.2985 21 12.5063 21C9.71402 21 9.36713 20.9896 8.24434 20.9385C7.13175 20.8875 6.47938 20.699 6.01639 20.5187C5.43947 20.3046 4.91712 19.9655 4.48682 19.5256C4.04689 19.0952 3.70769 18.5726 3.49362 17.9955C3.48771 17.9803 3.4818 17.9649 3.47588 17.9492L3.4887 18.0168L3.48495 18.0069C3.26786 17.4487 3.10843 16.7909 3.06167 15.768C3.01184 14.6758 3 14.3381 3 11.5063C3 8.67508 3.01253 8.33659 3.0617 7.24464C3.10847 6.22264 3.26849 5.56351 3.4849 5.00402L3.48781 4.99629C3.70226 4.42695 4.03821 3.91119 4.47227 3.48489L4.47836 3.47891L4.48434 3.47282Z" fill="#0D490D "/>
<path d="M19.0625 6.93929C19.3004 6.70139 19.434 6.37873 19.434 6.04229C19.434 5.70585 19.3004 5.38319 19.0625 5.1453C18.8246 4.9074 18.5019 4.77375 18.1655 4.77375C17.829 4.77375 17.5064 4.9074 17.2685 5.1453C17.0306 5.38319 16.8969 5.70585 16.8969 6.04229C16.8969 6.37873 17.0306 6.70139 17.2685 6.93929C17.5064 7.17719 17.829 7.31084 18.1655 7.31084C18.5019 7.31084 18.8246 7.17719 19.0625 6.93929Z" fill="#0D490D "/>
<path d="M3.0617 7.24464C3.10847 6.22264 3.26849 5.56351 3.4849 5.00402L3.48781 4.99629C3.70226 4.42695 4.03821 3.91119 4.47227 3.48489L4.47836 3.47891L4.48434 3.47282C4.91099 3.0382 5.42694 2.70258 5.99578 2.4887L6.00559 2.48495C6.56381 2.26786 7.22165 2.10843 8.2445 2.06167M3.0617 7.24464C3.01253 8.33659 3 8.67508 3 11.5063C3 14.3381 3.01184 14.6758 3.06167 15.768M3.0617 7.24464L3.0617 7.52008M3.4887 18.0168C3.70258 18.5856 4.0382 19.1015 4.47282 19.5282L4.4789 19.5342L4.48487 19.5402C4.91119 19.9743 5.42697 20.3103 5.99631 20.5247L6.00481 20.5279C6.56354 20.7446 7.2217 20.9041 8.2445 20.9509M3.4887 18.0168L3.48495 18.0069C3.26786 17.4487 3.10843 16.7909 3.06167 15.768M3.4887 18.0168L3.47588 17.9492M3.06167 15.768L3.07842 15.8562M3.06167 15.768L3.06167 15.4919M3.47588 17.9492L3.07842 15.8562M3.47588 17.9492C3.30707 17.5033 3.13325 16.881 3.07842 15.8562M3.47588 17.9492C3.4818 17.9649 3.48771 17.9803 3.49362 17.9955C3.70769 18.5726 4.04689 19.0952 4.48682 19.5256C4.91712 19.9655 5.43947 20.3046 6.01639 20.5187C6.47938 20.699 7.13176 20.8875 8.24434 20.9385C9.36713 20.9896 9.71402 21 12.5063 21C15.2985 21 15.6457 20.9896 16.7685 20.9385C17.8825 20.8874 18.5341 20.6979 18.9954 20.519C19.5727 20.305 20.0953 19.9657 20.5257 19.5256C20.9655 19.0953 21.3046 18.573 21.5187 17.9961C21.699 17.5331 21.8875 16.8808 21.9385 15.7682C21.9896 14.6454 22 14.2978 22 11.5063C22 8.71472 21.9896 8.36684 21.9385 7.24405C21.8871 6.12427 21.6959 5.47168 21.5162 5.00992C21.2811 4.40322 20.9831 3.94437 20.525 3.48627C20.0678 3.02999 19.6102 2.73179 19.0031 2.49654C18.5396 2.31537 17.8866 2.12531 16.7685 2.07406C16.6712 2.06964 16.5798 2.06552 16.4921 2.06168M3.07842 15.8562C3.07687 15.8273 3.07542 15.7981 3.07406 15.7685C3.06964 15.6712 3.06551 15.5797 3.06167 15.4919M8.2445 2.06167C9.33671 2.01184 9.67508 2 12.5063 2C15.3374 2 15.6757 2.01252 16.7676 2.06168M8.2445 2.06167L8.52065 2.06167M16.7676 2.06168L16.4921 2.06168M16.7676 2.06168C17.7898 2.10844 18.449 2.26844 19.0085 2.48487L19.0162 2.48781C19.5856 2.70226 20.1013 3.03821 20.5276 3.47227L20.5336 3.4783L20.5396 3.48422C20.9737 3.91055 21.3096 4.42646 21.5239 4.99596L21.5276 5.00559C21.7447 5.56381 21.9041 6.22165 21.9509 7.2445M8.52065 2.06167L16.4921 2.06168M8.52065 2.06167C9.44551 2.02123 9.95669 2.01253 12.5063 2.01253C15.0561 2.01253 15.5671 2.02124 16.4921 2.06168M8.52065 2.06167C8.43287 2.06551 8.34137 2.06964 8.24405 2.07406C7.13007 2.12512 6.47846 2.31464 6.01711 2.49358C5.4377 2.70837 4.91331 3.04936 4.48195 3.49186C4.02813 3.94756 3.73108 4.40422 3.49658 5.0094C3.31539 5.4728 3.1253 6.12614 3.07405 7.24434C3.06964 7.34135 3.06552 7.43257 3.0617 7.52008M21.9509 15.768C21.9041 16.7908 21.7447 17.449 21.528 18.0077L21.5247 18.0162C21.3103 18.5856 20.9743 19.1013 20.5403 19.5276L20.5342 19.5336L20.5282 19.5397C20.1015 19.9743 19.5856 20.3099 19.0168 20.5238L19.0069 20.5276C18.4487 20.7447 17.7909 20.9041 16.768 20.9509M3.06167 15.4919C3.02123 14.567 3.01253 14.0558 3.01253 11.5063C3.01253 8.95591 3.02123 8.44544 3.0617 7.52008M3.06167 15.4919L3.0617 7.52008M10.8155 15.5881C11.3516 15.8101 11.9261 15.9244 12.5063 15.9244C13.678 15.9244 14.8018 15.4589 15.6304 14.6304C16.4589 13.8018 16.9244 12.678 16.9244 11.5063C16.9244 10.3345 16.4589 9.21072 15.6304 8.38215C14.8018 7.55359 13.678 7.0881 12.5063 7.0881C11.9261 7.0881 11.3515 7.20238 10.8155 7.42442C10.2795 7.64645 9.79242 7.97189 9.38216 8.38215C8.9719 8.79242 8.64646 9.27947 8.42442 9.81551C8.20239 10.3515 8.08811 10.9261 8.08811 11.5063C8.08811 12.0865 8.20239 12.661 8.42442 13.197C8.64646 13.7331 8.9719 14.2201 9.38216 14.6304C9.79242 15.0406 10.2795 15.3661 10.8155 15.5881ZM9.37232 8.37231C10.2035 7.54113 11.3308 7.07418 12.5063 7.07418C13.6817 7.07418 14.809 7.54113 15.6402 8.37231C16.4714 9.20349 16.9383 10.3308 16.9383 11.5063C16.9383 12.6817 16.4714 13.809 15.6402 14.6402C14.809 15.4714 13.6817 15.9383 12.5063 15.9383C11.3308 15.9383 10.2035 15.4714 9.37232 14.6402C8.54114 13.809 8.07419 12.6817 8.07419 11.5063C8.07419 10.3308 8.54114 9.20349 9.37232 8.37231ZM19.434 6.04229C19.434 6.37873 19.3004 6.70139 19.0625 6.93929C18.8246 7.17719 18.5019 7.31084 18.1655 7.31084C17.829 7.31084 17.5064 7.17719 17.2685 6.93929C17.0306 6.70139 16.8969 6.37873 16.8969 6.04229C16.8969 5.70585 17.0306 5.38319 17.2685 5.1453C17.5064 4.9074 17.829 4.77375 18.1655 4.77375C18.5019 4.77375 18.8246 4.9074 19.0625 5.1453C19.3004 5.38319 19.434 5.70585 19.434 6.04229Z" stroke="#D2E2D0" stroke-linejoin="round"/>
</svg>
