<svg width="24" height="25" viewBox="0 0 24 25" fill="none" xmlns="http://www.w3.org/2000/svg">
<path d="M12.0228 2.5H11.9772C6.46696 2.5 2 6.96696 2 12.4772V12.5228C2 18.033 6.46696 22.5 11.9772 22.5H12.0228C17.533 22.5 22 18.033 22 12.5228V12.4772C22 6.96696 17.533 2.5 12.0228 2.5Z" fill="#0D490D"/>
<path d="M13.9489 15.425C11.3892 15.425 9.30673 13.3418 9.30603 10.7822C9.30673 10.1333 9.83506 9.60571 10.4825 9.60571C10.5491 9.60571 10.6149 9.61132 10.678 9.62253C10.8167 9.64565 10.9485 9.6926 11.0697 9.76337C11.0872 9.77388 11.0991 9.7907 11.1019 9.81032L11.3724 11.5151C11.3759 11.5354 11.3696 11.5551 11.3563 11.5698C11.207 11.7351 11.0164 11.8543 10.8041 11.9138L10.7018 11.9425L10.7404 12.0413C11.0893 12.9298 11.7998 13.6396 12.689 13.99L12.7878 14.0292L12.8165 13.9269C12.8761 13.7146 12.9952 13.524 13.1606 13.3748C13.1725 13.3636 13.1886 13.3579 13.2047 13.3579C13.2082 13.3579 13.2117 13.3579 13.2159 13.3586L14.9207 13.6291C14.941 13.6326 14.9579 13.6438 14.9684 13.6613C15.0384 13.7826 15.0854 13.915 15.1092 14.0537C15.1204 14.1154 15.1253 14.1806 15.1253 14.2485C15.1253 14.8967 14.5977 15.4243 13.9489 15.425Z" fill="#FFFEFE"/>
<path d="M18.488 11.9384C18.35 10.3787 17.6353 8.93173 16.4756 7.86456C15.309 6.7911 13.7955 6.19971 12.2126 6.19971C8.73854 6.19971 5.91193 9.02632 5.91193 12.5004C5.91193 13.6663 6.23354 14.8022 6.84245 15.7916L5.4845 18.7975L9.83233 18.3344C10.5884 18.6441 11.3886 18.801 12.2119 18.801C12.4284 18.801 12.6505 18.7898 12.8734 18.7667C13.0695 18.7457 13.2678 18.7149 13.4626 18.6756C16.3719 18.0877 18.4957 15.5057 18.5126 12.534V12.5004C18.5126 12.3112 18.5042 12.122 18.4873 11.9384H18.488ZM9.99979 17.015L7.5943 17.2714L8.31252 15.6801L8.16887 15.4874C8.15836 15.4734 8.14785 15.4594 8.13594 15.4433C7.51232 14.5821 7.18299 13.5647 7.18299 12.5011C7.18299 9.72772 9.43923 7.47147 12.2126 7.47147C14.8108 7.47147 17.0131 9.49859 17.2254 12.0863C17.2366 12.225 17.2429 12.3644 17.2429 12.5018C17.2429 12.541 17.2422 12.5796 17.2415 12.6209C17.1882 14.9409 15.5675 16.9113 13.3001 17.413C13.127 17.4515 12.9497 17.4809 12.7731 17.4999C12.5896 17.5209 12.4011 17.5314 12.214 17.5314C11.5476 17.5314 10.9002 17.4025 10.2885 17.1474C10.2205 17.1201 10.1539 17.0906 10.0916 17.0605L10.0005 17.0164L9.99979 17.015Z" fill="#FFFEFE"/>
</svg>
