<svg width="103" height="103" viewBox="0 0 103 103" fill="none" xmlns="http://www.w3.org/2000/svg">
<path d="M100.391 85.263C89.3098 105.458 59.8381 102.895 59.8381 102.895C68.2465 92.6786 61.0537 86.3746 69.0189 69.5886C72.907 61.3947 82.3234 56.1161 89.5427 53.5735C90.3105 52.2813 90.6683 48.3903 89.9387 45.3761L93.1968 44C98.0248 59.8421 77.9955 86.6697 77.6878 87.0881C78.0005 86.7947 90.819 74.2243 96.7659 55.8737C96.7659 55.8742 107.918 71.5445 100.391 85.263Z" fill="#0D490D"/>
<path d="M43.1619 96.4195L42.687 100C26.7535 96.3797 14.0478 65.0383 13.9201 64.7342C13.9792 65.0239 18.172 82.7615 30.804 97.2504C30.804 97.2504 11.8742 99.3439 4.02122 85.8175C-7.53897 65.9039 9.50146 41 9.50146 41C13.9355 53.5633 22.9164 50.3163 33.1523 65.7619C38.1486 73.3015 37.8819 84.2988 36.4 91.9803C37.1115 93.3069 40.2348 95.5654 43.1619 96.4195Z" fill="#0D490D"/>
<path d="M54.4567 35.9518C45.5552 36.5878 36.3422 30.8106 30.5537 25.6276C29.0717 25.5898 25.5935 27.2233 23.406 29.3911L20.6 27.1658C31.6285 14.8511 64.6057 19.3639 64.9279 19.4046C64.6527 19.311 47.4845 14.0966 28.8667 18.0071C28.8667 18.0071 36.5336 0.156016 51.9497 0.00138589C74.6426 -0.225328 87.3048 27.439 87.3048 27.439C74.4144 25.0451 72.6923 34.6491 54.4567 35.9518Z" fill="#0D490D"/>
</svg>
