<svg viewBox="0 0 92 93" fill="none" xmlns="http://www.w3.org/2000/svg">
<rect width="92" height="93" fill="#EBEBEB"/>
<g id="&#208;&#180;&#208;&#187;&#209;&#143; &#209;&#128;&#208;&#190;&#208;&#183;&#209;&#128;&#208;&#190;&#208;&#177;&#208;&#189;&#208;&#184;&#208;&#186;&#209;&#150;&#208;&#178;">
<path d="M-366 -1361C-366 -1362.1 -365.105 -1363 -364 -1363H4796C4797.1 -1363 4798 -1362.1 4798 -1361V4076C4798 4077.1 4797.1 4078 4796 4078H-364C-365.104 4078 -366 4077.1 -366 4076V-1361Z" fill="#F3F8E6"/>
<path d="M-364 -1362H4796V-1364H-364V-1362ZM4797 -1361V4076H4799V-1361H4797ZM4796 4077H-364V4079H4796V4077ZM-365 4076V-1361H-367V4076H-365ZM-364 4077C-364.552 4077 -365 4076.55 -365 4076H-367C-367 4077.66 -365.657 4079 -364 4079V4077ZM4797 4076C4797 4076.55 4796.55 4077 4796 4077V4079C4797.66 4079 4799 4077.66 4799 4076H4797ZM4796 -1362C4796.55 -1362 4797 -1361.55 4797 -1361H4799C4799 -1362.66 4797.66 -1364 4796 -1364V-1362ZM-364 -1364C-365.657 -1364 -367 -1362.66 -367 -1361H-365C-365 -1361.55 -364.552 -1362 -364 -1362V-1364Z" fill="black" fill-opacity="0.1"/>
<g id="desctop" clip-path="url(#clip0_0_1)">
<rect width="1440" height="4985" transform="translate(-80 -1121)" fill="#FFFEFE"/>
<g id="2page ">
<g id="conteiner text">
<g id="1 ">
<g id="Group">
<path id="Vector" d="M45.9911 0C45.9911 0 31 22.3265 31 30.8457C31 38.3819 36.2566 44.6529 43.2035 45.9909L43.6726 39.8381L34.5575 30.1721L43.9027 36.7982L44.3274 31.2825L37.2478 24.6292L44.531 28.6977L44.9381 23.4187L38.9823 18.8769L45.0796 21.5164L46 9.42936L46.9203 21.4618L52.6903 18.6494C52.6991 18.6494 52.708 18.6494 52.708 18.6585C52.708 18.6676 52.708 18.6676 52.708 18.6767L47.0708 23.4096L47.4779 28.6886L54.2743 24.9023C54.2832 24.9023 54.292 24.9023 54.292 24.9114C54.292 24.9205 54.292 24.9205 54.292 24.9296L47.6726 31.2643L48.0973 36.8073L57.4425 30.1812L48.3274 39.8472L48.7965 46C55.7434 44.6529 61 38.3819 61 30.8548C60.9823 22.3265 45.9911 0 45.9911 0Z" fill="#3D5A3B"/>
<g id="Group_2">
<path id="Vector_2" d="M43 93V82.2573V56.4246L29.1019 47.1846C29.1019 47.1846 22.9399 51.9253 25.6229 57.9273L30.7564 61.7825L30.345 69.01L16.9299 59.3495L10.437 24.1159C10.437 24.1159 6.47504 20.8868 0 21.0031L7.44988 69.6808L20.4804 81.98V92.9911H43V93Z" fill="#3D5A3B"/>
<path id="Vector_3" d="M49 93V82.2573V56.4246L62.8981 47.1846C62.8981 47.1846 69.0601 51.9253 66.3771 57.9273L61.2436 61.7825L61.6549 69.01L75.0701 59.3495L81.563 24.1159C81.563 24.1159 85.525 20.8868 92 21.0031L84.5501 69.6808L71.5106 81.98V92.9911H49V93Z" fill="#3D5A3B"/>
</g>
</g>
</g>
</g>
</g>
</g>
</g>
<defs>
<clipPath id="clip0_0_1">
<rect width="1440" height="4985" fill="white" transform="translate(-80 -1121)"/>
</clipPath>
</defs>
</svg>
