<svg width="92" height="82" viewBox="0 0 92 82" fill="none" xmlns="http://www.w3.org/2000/svg">
<path d="M86.3695 3.55756H62.11V0H29.8798V3.55756H5.62035C2.51383 3.55756 0 6.11651 0 9.27878C0 12.4411 2.51383 15 5.62035 15H86.3796C89.4862 15 92 12.4411 92 9.27878C92 6.11651 89.4658 3.55756 86.3695 3.55756Z" fill="#3D5A3B"/>
<path d="M14.0211 76.8581C14.2665 79.7136 17.2118 82 20.5967 82H72.4033C75.7883 82 78.7334 79.7136 78.9789 76.8581L84 18H9L14.0211 76.8581ZM65.1835 59.7352C63.1178 63.302 58.8943 65.3446 53.5971 65.3446H51.7154V69.7142L44.24 61.859L51.7154 54.0038V58.3735H53.5971C56.3173 58.3735 58.3319 57.6011 59.1091 56.2496C59.8965 54.8981 59.559 52.7844 58.1989 50.437L64.2734 46.9514C66.922 51.5141 67.2493 56.1683 65.1835 59.7352ZM46.2239 27.095C50.3656 27.095 54.2618 29.7066 56.9002 34.2591L58.6796 37.328L63.0258 35.194L59.2318 45.3255L48.8418 42.1346L52.3699 40.4071L50.8155 37.7345C49.4554 35.3973 47.7783 34.0457 46.2034 34.0457C44.6388 34.0457 42.9515 35.3871 41.5914 37.7345L35.5169 34.249C38.186 29.7066 42.0822 27.095 46.2239 27.095ZM36.4373 40.021L39.5358 50.3862L35.5885 48.12L34.2284 50.4573C32.8683 52.7945 32.541 54.9184 33.3182 56.2699C34.1057 57.6215 36.11 58.3938 38.8302 58.3938V65.3649C33.533 65.3649 29.3095 63.3223 27.2438 59.7555C25.1781 56.1886 25.5053 51.5345 28.1539 46.9819L29.514 44.6447L25.8428 42.531L36.4373 40.021Z" fill="#3D5A3B"/>
</svg>
