<svg  viewBox="0 0 80 115" fill="none" xmlns="http://www.w3.org/2000/svg">
<path d="M57.519 15.217C56.7895 14.806 53.8304 14.7135 53.594 13.8401C53.3577 12.9668 55.8956 11.4769 56.3169 10.7577C55.5051 10.5522 52.9159 11.7544 52.4638 10.9735C52.0117 10.1926 53.7893 7.57253 54.0153 6.76083C53.1728 6.7711 50.6863 8.29176 50.0492 7.65473C49.4122 7.01769 50.7377 4.33598 50.7479 3.49345C49.9362 3.7195 47.9326 5.8361 47.1518 5.38401C46.3709 4.93192 46.9668 2.00359 46.751 1.19188C46.0318 1.62342 44.5831 4.16131 43.7097 3.93526C42.8363 3.69894 42.7028 0.72951 42.2918 0C41.7061 0.595938 40.8841 3.43177 39.98 3.43177C39.0758 3.43177 38.2641 0.595938 37.6681 0C37.2571 0.72951 37.2571 3.66811 36.3838 3.89415C35.5104 4.13047 33.9384 1.61315 33.2089 1.19188C33.0034 2.00359 33.6404 4.91135 32.8595 5.36344C32.0787 5.81553 30.0237 3.72975 29.2223 3.50371C29.2325 4.34624 30.6813 6.89438 30.0443 7.54169C29.4072 8.17873 26.7974 6.78135 25.9549 6.77108C26.1809 7.58279 28.1639 9.41173 27.7119 10.2029C27.2598 10.9838 24.4548 10.5625 23.6431 10.768C24.0746 11.4872 26.6433 12.823 26.4172 13.6963C26.1809 14.5697 23.1807 14.8162 22.4512 15.2272C23.0471 15.8129 25.8829 16.4294 25.8829 17.3336C25.8829 18.2378 23.0471 19.2549 22.4512 19.8406C23.1807 20.2516 26.1295 20.303 26.3659 21.1763C26.6022 22.0497 24.0746 23.5807 23.6533 24.2999C24.465 24.5054 27.3009 23.7553 27.753 24.5465C28.2051 25.3274 26.1809 27.4953 25.9549 28.2968C26.7974 28.2865 29.3866 26.8686 30.0237 27.5056C30.6607 28.1427 29.2325 30.7216 29.2223 31.5539C30.034 31.3278 32.2122 29.314 32.9931 29.7661C33.774 30.2181 33.0034 33.0437 33.2089 33.8554C33.9281 33.4239 35.4385 30.8963 36.3118 31.1326C37.1852 31.3689 37.2571 34.3178 37.6681 35.0473C38.2538 34.4514 39.0758 31.6155 39.98 31.6155C40.8841 31.6155 41.7061 34.4514 42.2918 35.0473C42.7028 34.3178 42.9185 31.3278 43.7919 31.0915C44.6652 30.8552 46.0318 33.4239 46.751 33.8554C46.9565 33.0437 46.4942 30.0332 47.2853 29.5811C48.0662 29.129 49.9465 31.3176 50.7479 31.5436C50.7377 30.7011 49.443 27.9885 50.0903 27.3412C50.7274 26.7042 53.1728 28.266 54.0153 28.2762C53.7893 27.4645 51.796 25.2451 52.2481 24.4643C52.7001 23.6834 55.5051 24.4848 56.3169 24.2793C55.8853 23.5601 53.3988 21.9058 53.6352 21.0325C53.8715 20.1591 56.7792 20.2311 57.5087 19.8201C56.9128 19.2344 54.077 18.4124 54.077 17.5082C54.077 16.6041 56.9128 15.8026 57.519 15.217ZM39.9902 29.9305C33.1472 29.9305 27.5886 24.3615 27.5886 17.5288C27.5886 10.696 33.1575 5.12714 39.9902 5.12714C46.8332 5.12714 52.3919 10.696 52.3919 17.5288C52.3919 24.3615 46.8332 29.9305 39.9902 29.9305Z" fill="#173614"/>
<path d="M39.9904 6.39093C33.8461 6.39093 28.8628 11.3742 28.8628 17.5185C28.8628 23.6629 33.8461 28.6461 39.9904 28.6461C46.1347 28.6461 51.118 23.6629 51.118 17.5185C51.1283 11.3742 46.1347 6.39093 39.9904 6.39093Z" fill="#173614"/>
<path d="M41.5519 52.9974H55.0838L53.82 43.7295H41.5519V52.9974Z" fill="#173614"/>
<path d="M41.5519 67.2279H57.0155L55.5051 56.1106H41.5519V67.2279Z" fill="#173614"/>
<path d="M38.4384 43.7295H26.16L24.8962 52.9974H38.4384V43.7295Z" fill="#173614"/>
<path d="M38.4387 70.3412H22.5436L21.0846 81.0886H38.4387V70.3412Z" fill="#173614"/>
<path d="M21.3311 56.1106H6.99776L3.22693 67.2279H19.8207L21.3311 56.1106Z" fill="#173614"/>
<path d="M38.4389 67.2279V56.1106H24.4755L22.9651 67.2279H38.4389Z" fill="#173614"/>
<path d="M19.3993 70.3412H2.16849L0.247107 75.9923C-0.687898 78.7562 1.11016 81.0886 4.29534 81.0886H17.93L19.3993 70.3412Z" fill="#173614"/>
<path d="M77.8113 70.3412H60.5804L62.0395 81.0886H75.6741C78.8696 81.0886 80.6677 78.7562 79.7224 75.9923L77.8113 70.3412Z" fill="#173614"/>
<path d="M21.7625 52.9974L23.0263 43.7295H15.2174C12.9981 43.7295 10.8096 44.8906 10.3061 46.3701L8.05591 52.9871H21.7625V52.9974Z" fill="#173614"/>
<path d="M57.4367 70.3412H41.5519V81.0886H58.8957L57.4367 70.3412Z" fill="#173614"/>
<path d="M72.9825 56.1106H58.6492L60.1596 67.2279H76.7533L72.9825 56.1106Z" fill="#173614"/>
<path d="M58.2277 52.9974H71.9342L69.6841 46.3804C69.1806 44.9009 66.9921 43.7398 64.7727 43.7398H56.9639L58.2277 52.9974Z" fill="#173614"/>
<path d="M4.30596 84.2327C2.69282 84.2327 1.22353 83.8217 0.0111084 83.0716V85.4965C0.0111084 88.6919 2.60036 91.2811 5.79582 91.2811H74.2156C77.4111 91.2811 80.0003 88.6919 80.0003 85.4965V83.0716C78.7879 83.8217 77.3083 84.2327 75.7054 84.2327H4.30596Z" fill="#173614"/>
<path d="M54.5185 94.1067H27.8349L19.4507 114.564H62.9028L54.5185 94.1067Z" fill="#173614"/>
</svg>
