<svg width="36" height="52" viewBox="0 0 36 52" fill="none" xmlns="http://www.w3.org/2000/svg">
<path fill-rule="evenodd" clip-rule="evenodd" d="M14.6359 0.345933C7.53019 1.38851 0.810512 6.20041 0.166876 15.9846C-0.296549 23.2826 -0.245036 23.336 6.50033 21.9192C12.1901 20.7162 11.8811 21.0371 11.8811 16.546C11.8811 12.7232 12.9109 10.5578 15.7172 9.0608C21.9477 5.77268 26.4275 14.4341 26.4275 17.1608C26.4275 20.1549 24.3677 21.7321 17.8798 23.6835C12.5762 25.2875 10.8771 27.5598 10.671 33.2539C10.6195 34.9382 10.4395 36.2747 10.2592 36.4885C9.46112 37.5044 12.2416 38.4402 15.2023 38.1727C24.0847 37.344 23.9559 37.4243 23.4666 33.9489C23.1578 31.7837 23.3637 31.4628 25.4748 30.7944C30.5725 29.1904 33.4818 26.143 35.0265 20.7965C39.0685 7.00238 30.1864 -1.89961 14.6359 0.345933ZM22.9519 1.94991C28.7446 2.83208 34.1513 10.6113 33.1471 16.6796C32.2202 22.2935 29.2851 25.7421 23.441 28.0142C20.6088 29.1104 19.7078 30.5004 19.6821 33.7618V35.5797C16.5412 35.9004 16.3351 35.9004 14.2754 36.2213C14.6359 28.3351 14.121 27.533 23.5183 24.1113C29.4141 21.9727 30.7013 16.8668 26.8651 10.9321C20.712 1.41523 4.87833 7.72415 7.89057 18.4975C8.01931 19.0053 8.09655 19.4599 8.04506 19.5134C7.96784 19.5934 4.62081 20.3687 4.36337 20.3687C4.33762 20.3687 4.15743 17.0806 4.00295 15.9578C2.63843 6.30732 12.4991 0.399399 22.9519 1.94991ZM13.1685 41.2204C8.53422 43.4124 8.35395 49.2935 12.8594 50.9777C21.8448 54.346 29.9805 48.8125 24.9084 42.7975C23.4153 40.9798 15.7945 39.9639 13.1685 41.2204ZM19.7595 42.8243C21.8189 43.145 23.6212 44.8559 23.6212 46.4598C23.6212 49.4272 16.6185 50.8977 14.0954 48.465C12.8594 47.2619 12.4477 41.6747 19.7595 42.8243Z" fill="#173614"/>
</svg>
