<svg width="92" height="93" viewBox="0 0 92 93" fill="none" xmlns="http://www.w3.org/2000/svg">
<path d="M45.9911 0C45.9911 0 31 22.3265 31 30.8457C31 38.3819 36.2566 44.6529 43.2035 45.9909L43.6726 39.8381L34.5575 30.1721L43.9027 36.7982L44.3274 31.2825L37.2478 24.6292L44.531 28.6977L44.9381 23.4187L38.9823 18.8769L45.0796 21.5164L46 9.42936L46.9204 21.4618L52.6903 18.6494C52.6991 18.6494 52.708 18.6494 52.708 18.6585C52.708 18.6676 52.708 18.6676 52.708 18.6767L47.0708 23.4096L47.4779 28.6886L54.2743 24.9023C54.2832 24.9023 54.292 24.9023 54.292 24.9114C54.292 24.9205 54.292 24.9205 54.292 24.9296L47.6726 31.2643L48.0973 36.8073L57.4425 30.1812L48.3274 39.8472L48.7965 46C55.7434 44.6529 61 38.3819 61 30.8548C60.9823 22.3265 45.9911 0 45.9911 0Z" fill="#173614"/>
<path d="M43 93V82.2573V56.4246L29.1019 47.1846C29.1019 47.1846 22.9399 51.9253 25.6229 57.9273L30.7564 61.7825L30.345 69.01L16.9299 59.3495L10.437 24.1159C10.437 24.1159 6.47504 20.8868 0 21.0031L7.44988 69.6808L20.4804 81.98V92.9911H43V93Z" fill="#173614"/>
<path d="M49 93V82.2573V56.4246L62.8981 47.1846C62.8981 47.1846 69.0601 51.9253 66.3771 57.9273L61.2436 61.7825L61.6549 69.01L75.0701 59.3495L81.563 24.1159C81.563 24.1159 85.525 20.8868 92 21.0031L84.5501 69.6808L71.5106 81.98V92.9911H49V93Z" fill="#173614"/>
</svg>
