<svg width="24" height="24" viewBox="0 0 24 24" fill="none" xmlns="http://www.w3.org/2000/svg">
<path d="M13.6017 11.5076L20.7752 4.35832C21.0749 4.0558 21.0749 3.56572 20.7752 3.2632C20.4808 2.95527 19.9946 2.94602 19.6889 3.24254L12.5154 10.3918L5.43404 3.24254C5.28886 3.08772 5.08685 3 4.87552 3C4.6642 3 4.46219 3.08772 4.31701 3.24254C4.05128 3.53482 4.05128 3.98339 4.31701 4.27567L11.3983 11.4146L4.22478 18.5536C3.92507 18.8561 3.92507 19.3462 4.22478 19.6487C4.36746 19.796 4.56369 19.8781 4.76792 19.876C4.97609 19.893 5.18246 19.8261 5.34181 19.69L12.5154 12.5407L19.6889 19.7727C19.8316 19.92 20.0278 20.0021 20.2321 20C20.4361 20.0009 20.6319 19.919 20.7752 19.7727C21.0749 19.4701 21.0749 18.9801 20.7752 18.6775L13.6017 11.5076Z" fill="#0D490D"/>
</svg>
