<svg width="18" height="17" viewBox="0 0 18 17" fill="none" xmlns="http://www.w3.org/2000/svg">
<path d="M7.83332 12.3332L13.7083 6.45817L12.5417 5.2915L7.83332 9.99984L5.45832 7.62484L4.29166 8.7915L7.83332 12.3332ZM8.99999 16.8332C7.84721 16.8332 6.76388 16.6144 5.74999 16.1769C4.7361 15.7394 3.85416 15.1457 3.10416 14.3957C2.35416 13.6457 1.76041 12.7637 1.32291 11.7498C0.885406 10.7359 0.666656 9.65261 0.666656 8.49984C0.666656 7.34706 0.885406 6.26373 1.32291 5.24984C1.76041 4.23595 2.35416 3.354 3.10416 2.604C3.85416 1.854 4.7361 1.26025 5.74999 0.822754C6.76388 0.385254 7.84721 0.166504 8.99999 0.166504C10.1528 0.166504 11.2361 0.385254 12.25 0.822754C13.2639 1.26025 14.1458 1.854 14.8958 2.604C15.6458 3.354 16.2396 4.23595 16.6771 5.24984C17.1146 6.26373 17.3333 7.34706 17.3333 8.49984C17.3333 9.65261 17.1146 10.7359 16.6771 11.7498C16.2396 12.7637 15.6458 13.6457 14.8958 14.3957C14.1458 15.1457 13.2639 15.7394 12.25 16.1769C11.2361 16.6144 10.1528 16.8332 8.99999 16.8332ZM8.99999 15.1665C10.8611 15.1665 12.4375 14.5207 13.7292 13.229C15.0208 11.9373 15.6667 10.3609 15.6667 8.49984C15.6667 6.63873 15.0208 5.06234 13.7292 3.77067C12.4375 2.479 10.8611 1.83317 8.99999 1.83317C7.13888 1.83317 5.56249 2.479 4.27082 3.77067C2.97916 5.06234 2.33332 6.63873 2.33332 8.49984C2.33332 10.3609 2.97916 11.9373 4.27082 13.229C5.56249 14.5207 7.13888 15.1665 8.99999 15.1665Z" fill="#10880D"/>
</svg>
