<svg width="60" height="60" viewBox="0 0 60 60" fill="none" xmlns="http://www.w3.org/2000/svg">
<path d="M58.5063 49.6545C52.1636 61.4335 35.2939 59.9384 35.2939 59.9384C40.1069 53.9797 35.9898 50.3029 40.549 40.5125C42.7746 35.7334 48.1645 32.6546 52.2969 31.1716C52.7364 30.418 52.9412 28.1486 52.5235 26.3905L54.3885 25.5879C57.152 34.8278 45.6872 50.475 45.5111 50.719C45.6901 50.5479 53.0274 43.2162 56.4314 32.5132C56.4314 32.5135 62.8147 41.6532 58.5063 49.6545Z" fill="#173614"/>
<path d="M24.7059 56.1476L24.4341 58.236C15.3137 56.1244 8.04097 37.8446 7.9679 37.6672C8.00167 37.8362 10.4017 48.1816 17.6322 56.6323C17.6322 56.6323 6.7968 57.8533 2.30175 49.964C-4.31531 38.3494 5.43864 23.8242 5.43864 23.8242C7.97667 31.1518 13.1173 29.258 18.9764 38.2666C21.8363 42.6641 21.6836 49.0782 20.8354 53.5585C21.2426 54.3322 23.0304 55.6495 24.7059 56.1476Z" fill="#173614"/>
<path d="M32.0578 21.1481C26.877 21.5222 21.5148 18.1239 18.1458 15.0751C17.2832 15.0528 15.2589 16.0137 13.9857 17.2889L12.3525 15.9799C18.7713 8.73597 37.9647 11.3905 38.1523 11.4145C37.9921 11.3594 27.9999 8.29211 17.1639 10.5924C17.1639 10.5924 21.6262 0.0917743 30.5987 0.000815232C43.8064 -0.132546 51.1761 16.1406 51.1761 16.1406C43.6736 14.7324 42.6713 20.3818 32.0578 21.1481Z" fill="#173614"/>
<rect x="34.667" y="29" width="3.29975" height="16.4988" rx="1.64988" transform="rotate(45 34.667 29)" fill="#E51010"/>
<rect width="3.29975" height="16.4988" rx="1.64988" transform="matrix(0.707107 -0.707107 -0.707107 -0.707107 34.667 43)" fill="#E51010"/>
</svg>
