<svg width="20" height="16" viewBox="0 0 20 16" fill="none" xmlns="http://www.w3.org/2000/svg">
<path d="M0.833344 15.9998L10 0.166504L19.1667 15.9998H0.833344ZM3.70834 14.3332H16.2917L10 3.49984L3.70834 14.3332ZM10 13.4998C10.2361 13.4998 10.434 13.42 10.5938 13.2603C10.7535 13.1005 10.8333 12.9026 10.8333 12.6665C10.8333 12.4304 10.7535 12.2325 10.5938 12.0728C10.434 11.913 10.2361 11.8332 10 11.8332C9.7639 11.8332 9.56598 11.913 9.40626 12.0728C9.24654 12.2325 9.16668 12.4304 9.16668 12.6665C9.16668 12.9026 9.24654 13.1005 9.40626 13.2603C9.56598 13.42 9.7639 13.4998 10 13.4998ZM9.16668 10.9998H10.8333V6.83317H9.16668V10.9998Z" fill="#FF493D"/>
</svg>
