<svg width="20" height="20" viewBox="0 0 20 20" fill="none" xmlns="http://www.w3.org/2000/svg">
<mask id="mask0_1677_9056" style="mask-type:alpha" maskUnits="userSpaceOnUse" x="0" y="0" width="20" height="20">
<rect width="20" height="20" fill="#D9D9D9"/>
</mask>
<g mask="url(#mask0_1677_9056)">
<path d="M7.5 14.9993C7.04167 14.9993 6.64931 14.8362 6.32292 14.5098C5.99653 14.1834 5.83333 13.791 5.83333 13.3327V3.33268C5.83333 2.87435 5.99653 2.48199 6.32292 2.1556C6.64931 1.82921 7.04167 1.66602 7.5 1.66602H15C15.4583 1.66602 15.8507 1.82921 16.1771 2.1556C16.5035 2.48199 16.6667 2.87435 16.6667 3.33268V13.3327C16.6667 13.791 16.5035 14.1834 16.1771 14.5098C15.8507 14.8362 15.4583 14.9993 15 14.9993H7.5ZM7.5 13.3327H15V3.33268H7.5V13.3327ZM4.16667 18.3327C3.70833 18.3327 3.31597 18.1695 2.98958 17.8431C2.66319 17.5167 2.5 17.1243 2.5 16.666V4.99935H4.16667V16.666H13.3333V18.3327H4.16667Z" fill="#FFFEFE"/>
</g>
</svg>
