<svg width="36" height="36" viewBox="0 0 36 36" fill="none" xmlns="http://www.w3.org/2000/svg">
<rect width="36" height="36" rx="4" fill="#0D490D"/>
<path d="M22.6217 13.3142H15.9078C15.3943 13.3142 14.978 12.9521 14.978 12.5054C14.978 12.0588 15.3943 11.6967 15.9078 11.6967H22.6217C23.1353 11.6967 23.5516 12.0588 23.5516 12.5054C23.5516 12.9521 23.1353 13.3142 22.6217 13.3142Z" fill="#FEFEFE"/>
<path d="M15.9488 18.6779H20.7347C21.2483 18.6779 21.6645 19.04 21.6645 19.4866C21.6645 19.9332 21.2483 20.2953 20.7347 20.2953H15.9488C15.4353 20.2953 15.019 19.9332 15.019 19.4866C15.019 19.04 15.4353 18.6779 15.9488 18.6779Z" fill="#FEFEFE"/>
<path d="M24.5361 15.1814H15.9078C15.5462 15.1433 15.1916 15.2897 14.9969 15.5575C14.8023 15.8253 14.8023 16.1667 14.9969 16.4345C15.1916 16.7023 15.5462 16.8488 15.9078 16.8107H24.5361C25.0098 16.7608 25.3662 16.4111 25.3662 15.996C25.3662 15.5809 25.0098 15.2312 24.5361 15.1814Z" fill="#FEFEFE"/>
<path fill-rule="evenodd" clip-rule="evenodd" d="M17.4256 6H23.0046C26.5918 6 29.4997 8.52921 29.4997 11.6491V20.3548C29.5249 22.7211 27.8482 24.8492 25.3018 25.6828C25.0397 28.1369 22.666 30.0105 19.8322 30H12.9953C9.40811 30 6.50014 27.4707 6.50014 24.3508V14.5748C6.48005 12.1552 8.55143 10.1079 11.3134 9.81763C12.2094 7.54363 14.6618 6.01187 17.4256 6ZM12.9406 28.1684H19.7775C21.3061 28.1694 22.648 27.2843 23.0593 26.0039H17.4256C13.8385 26.0039 10.9305 23.4747 10.9305 20.3548V11.6967C9.48976 12.0695 8.50054 13.2199 8.49654 14.5272V24.3032C8.49654 26.4379 10.4862 28.1684 12.9406 28.1684ZM27.4486 20.3548C27.4486 22.4895 25.459 24.22 23.0046 24.22H17.4256C14.9744 24.2135 12.9891 22.4868 12.9816 20.3548V11.6491C12.9891 9.51716 14.9744 7.79047 17.4256 7.78394H23.0046C25.459 7.78394 27.4486 9.51445 27.4486 11.6491V20.3548Z" fill="#FEFEFE"/>
</svg>
