<svg width="52" height="58" viewBox="0 0 52 58" fill="none" xmlns="http://www.w3.org/2000/svg">
<path d="M26.5503 47.8501C14.0056 47.8501 3.8316 52.3932 3.8316 58.0001H49.2632C49.2632 52.3932 39.095 47.8501 26.5503 47.8501Z" fill="#173614"/>
<path d="M41.4444 10.4125C38.2673 11.3116 35.9397 13.3735 35.5789 15.3815C36.0153 15.1238 36.4518 14.89 36.894 14.6862C37.6097 14.3506 38.3429 14.0748 39.0819 13.859C42.6489 12.8401 46.728 14.1887 46.728 14.1887C46.728 14.1887 41.0196 14.5124 37.889 16.6703C37.3595 17.0359 36.8009 17.3896 36.2714 17.8031C37.6155 19.2777 40.589 19.7812 43.7138 18.8941C47.5543 17.8031 52 11.9829 52 11.9829C52 11.9829 45.2907 9.32154 41.4444 10.4125Z" fill="#173614"/>
<path d="M13.35 17.2493C12.9272 16.9969 7.70884 14.4549 7.70884 14.4549C7.70884 14.4549 12.3249 14.4549 14.2477 15.3263C14.9717 15.6508 15.7073 16.0114 16.4196 16.456C16.4891 14.2506 13.9987 11.8529 10.4889 10.8794C6.65473 9.81571 0 12.5379 0 12.5379C0 12.5379 4.46545 18.337 8.29959 19.4006C11.0912 20.1758 13.7554 19.8273 15.2323 18.6795C14.63 18.1146 13.9987 17.6399 13.35 17.2493Z" fill="#173614"/>
<path d="M24.7843 24.1504C24.8658 24.3106 24.9523 24.4831 25.0338 24.6494C25.2273 23.1092 25.4513 21.0698 25.5888 19.0182C25.6244 18.5006 25.6499 17.9769 25.6754 17.4655C25.6957 16.9542 25.7161 16.449 25.7212 15.9622C25.7263 15.7158 25.7263 15.4755 25.7263 15.2414C25.7263 15.0072 25.7263 14.7793 25.7212 14.5513C25.7212 14.3295 25.711 14.1077 25.7059 13.8982C25.7008 13.6888 25.6906 13.4854 25.6805 13.2883C25.6703 13.0911 25.2884 10.6328 25.2884 10.6328C25.2884 10.6328 25.1611 13.0911 25.1407 13.276C25.1254 13.467 25.1051 13.6641 25.0847 13.8613C25.0643 14.0646 25.0389 14.2741 25.0134 14.4897C24.988 14.7053 24.9574 14.9271 24.9218 15.149C24.8912 15.3769 24.8556 15.6049 24.8148 15.839C24.7436 16.3072 24.657 16.7878 24.5653 17.2745C24.4737 17.7613 24.3719 18.2542 24.27 18.7471C24.0409 19.8253 23.7863 20.8973 23.5368 21.8831C23.7812 22.2959 24.0307 22.7272 24.27 23.1769C24.4533 23.5096 24.6214 23.83 24.7843 24.1504Z" fill="#173614"/>
<path d="M43.4811 14.025C43.3764 14.025 43.2483 14.0127 43.0912 14.0188C42.9399 14.0188 42.7595 14.025 42.5675 14.025C42.3697 14.0372 42.1544 14.0495 41.9158 14.0679C41.6772 14.0987 41.4212 14.111 41.1477 14.1601C40.6007 14.2338 39.9838 14.3689 39.3263 14.5655C38.6687 14.762 37.9646 15.0262 37.2489 15.3702C36.5331 15.7141 35.7999 16.1441 35.0725 16.6416C34.351 17.1453 33.6352 17.7166 32.9544 18.3492C32.2736 18.9819 31.616 19.6699 30.9934 20.3947C29.7597 21.8443 28.6716 23.4291 27.7521 24.977C27.2342 25.8492 26.7745 26.7091 26.3614 27.5261C26.0413 28.1649 25.7504 28.7791 25.4943 29.3565C25.4361 29.4917 25.378 29.6207 25.3198 29.7558C25.4536 30.0506 25.5874 30.3516 25.7213 30.6465C25.5874 30.3455 25.4536 30.0506 25.3198 29.7558C25.1743 29.4364 25.023 29.1108 24.8659 28.7914C24.6797 28.4044 24.4935 28.0236 24.2956 27.6489C23.8708 26.8136 23.4227 25.9966 22.9572 25.1981C22.771 24.8848 22.5848 24.5777 22.3928 24.2706C21.8807 23.4475 21.3453 22.6612 20.7925 21.918C20.0302 20.8984 19.2272 19.9647 18.4009 19.1478C17.5804 18.3308 16.7366 17.6306 15.9103 17.0716C15.084 16.5065 14.2752 16.0827 13.542 15.7817C12.8029 15.4807 9.85266 14.934 9.85266 14.934C9.85266 14.934 12.64 15.9291 13.2917 16.3222C13.9435 16.7215 14.6359 17.2436 15.3226 17.8886C16.0092 18.5335 16.6901 19.3013 17.336 20.1797C17.9819 21.0519 18.5929 22.0347 19.1574 23.0851C19.7218 24.1355 20.2397 25.2657 20.7111 26.4389C21.1824 27.6121 21.613 28.8283 21.9912 30.0629C22.7535 32.5322 23.3471 35.0567 23.801 37.4523C24.2549 39.8417 24.5749 42.1021 24.796 44.037C25.023 45.9719 25.151 47.5874 25.2208 48.7114C25.2558 49.2704 25.279 49.7127 25.2907 50.0014C25.2965 50.1426 25.3023 50.2532 25.3023 50.3269C25.3023 50.3945 25.3023 50.4313 25.3023 50.4313C25.3081 50.5972 25.3256 50.7814 25.3547 50.9473C25.6631 52.7409 27.2924 53.9264 28.9858 53.5947C30.685 53.2691 31.808 51.5493 31.4938 49.7618L31.4822 49.7004C31.4822 49.7004 31.4763 49.6512 31.4589 49.5591C31.4414 49.4731 31.4182 49.3441 31.3891 49.1783C31.3251 48.8527 31.2319 48.3797 31.1039 47.7839C30.8479 46.5984 30.4638 44.9215 29.9343 42.9314C29.4048 40.9474 28.7239 38.6439 27.886 36.2238C27.5601 35.2779 27.2051 34.3135 26.8211 33.3369C26.5883 32.741 26.3439 32.1452 26.0937 31.5433C26.3439 32.1391 26.5883 32.741 26.8211 33.3369C27.0131 32.5998 27.2924 31.6047 27.6823 30.4437C27.694 30.4069 27.7056 30.3762 27.7172 30.3393C28.1537 29.0371 28.7297 27.5384 29.4513 25.9905C30.1729 24.4426 31.0574 22.8394 32.0874 21.3529C32.6052 20.6097 33.1581 19.8971 33.7458 19.2338C34.3335 18.5704 34.9503 17.9623 35.5904 17.4156C36.2247 16.8689 36.8823 16.3959 37.534 15.9967C38.1857 15.5974 38.8317 15.2719 39.4543 15.02C40.0711 14.7682 40.653 14.5716 41.1826 14.4426C41.4444 14.3689 41.6947 14.3259 41.9274 14.2707C42.1602 14.2338 42.3755 14.1969 42.5675 14.1662C42.7595 14.1417 42.9341 14.1232 43.0854 14.1048C43.2367 14.0864 43.3647 14.0802 43.4695 14.0741C43.679 14.0557 43.7895 14.0495 43.7895 14.0495C43.7895 14.0495 43.6906 14.0311 43.4811 14.025Z" fill="#173614"/>
<path d="M29.5574 8.61935C29.522 4.70146 25.0991 0 25.0991 0C25.0991 0 20.7648 4.77982 20.8002 8.69771C20.8297 11.8622 22.1347 14.5323 23.9122 15.4304C23.9417 15.2617 23.9712 15.117 23.9889 14.9784C24.0244 14.7614 24.0598 14.5565 24.0893 14.3455C24.1188 14.1526 24.1484 13.9597 24.172 13.7488C24.1956 13.5559 24.2192 13.3751 24.2369 13.1942C24.2547 13.0375 25.0282 8.04071 25.0282 8.04071C25.0282 8.04071 26.4395 10.9701 26.3805 13.2304C26.3746 13.4293 26.4041 13.6403 26.4159 13.8512C26.4277 14.0803 26.4336 14.2973 26.4336 14.5082C26.4395 14.7313 26.4395 14.9663 26.4395 15.1954C26.4395 15.2798 26.4395 15.3702 26.4395 15.4666C28.2701 14.6047 29.5869 11.8622 29.5574 8.61935Z" fill="#173614"/>
</svg>
