<svg width="38" height="24" viewBox="0 0 38 24" fill="none" xmlns="http://www.w3.org/2000/svg">
<g clip-path="url(#clip0_183_5178)">
<rect width="38" height="24" rx="3" fill="#1A47B8"/>
<path fill-rule="evenodd" clip-rule="evenodd" d="M4.04243 0H0V4L33.9356 24L38 24V20L4.04243 0Z" fill="white"/>
<path d="M1.34827 0L38 21.6567V24H36.6833L0 2.32089V0H1.34827Z" fill="#F93939"/>
<path fill-rule="evenodd" clip-rule="evenodd" d="M34.381 0H38.0001V4C38.0001 4 14.494 17.3249 3.61913 24H7.82013e-05V20L34.381 0Z" fill="white"/>
<path d="M38 0H36.7727L0 21.6753V24H1.34827L38 2.33842V0Z" fill="#F93939"/>
<path fill-rule="evenodd" clip-rule="evenodd" d="M13.8195 0H24.2121V7.40291H38V16.5922H24.2121V24H13.8195V16.5922H0V7.40291H13.8195V0Z" fill="white"/>
<path fill-rule="evenodd" clip-rule="evenodd" d="M16 0H22V9.23077H38V14.7692H22V24H16V14.7692H0V9.23077H16V0Z" fill="#F93939"/>
</g>
<defs>
<clipPath id="clip0_183_5178">
<rect width="38" height="24" rx="3" fill="white"/>
</clipPath>
</defs>
</svg>
