<svg width="79" height="79" fill="none" xmlns="http://www.w3.org/2000/svg"><mask id="a" style="mask-type:luminance" maskUnits="userSpaceOnUse" x="0" y="0" width="79" height="79"><path d="M0 .5h78.638v78H0V.5z" fill="#fff"/></mask><g mask="url(#a)"><path d="M39.294.511C17.695.511.164 18.038.164 39.641a39.763 39.763 0 0 0 .795 7.887 38.66 38.66 0 0 0 .965 3.748c.129.445.6.694 1.04.557a.828.828 0 0 0 .545-1.048 37.043 37.043 0 0 1-.924-3.59 37.852 37.852 0 0 1-.57-3.722 37.588 37.588 0 0 1-.191-3.831c0-20.706 16.766-37.471 37.47-37.471 20.705 0 37.47 16.765 37.47 37.47 0 1.294-.062 2.571-.19 3.832-.13 1.26-.321 2.5-.571 3.722a36.784 36.784 0 0 1-.923 3.59c-.142.44.1.91.544 1.048a.827.827 0 0 0 1.04-.557c.383-1.223.703-2.476.965-3.748.262-1.277.458-2.571.595-3.89.133-1.314.2-2.649.2-3.996 0-21.604-17.528-39.13-39.13-39.13zm-5.424 9.862c-1.31.05-2.47.93-2.832 2.275a3.045 3.045 0 0 0 2.167 3.756l5.898 1.584 3.003-3.006c.47-.47 1.018-.82 1.6-1.05-.029-.053-.05-.103-.078-.153a3.03 3.03 0 0 0-1.863-1.427L34.79 10.48a3.198 3.198 0 0 0-.92-.107zm-4.454 1.938c-.395.13-.757.341-1.06.649-1.16 1.156-1.078 3.236.366 4.704l9.457 9.466c1.468 1.47 3.561 1.56 4.725.396 1.165-1.17 1.073-3.261-.395-4.73l-2.974-2.978-.39-.103s-.005 0-.005-.005l-6.364-1.705c-2.482-.666-3.971-3.21-3.36-5.694zm16.03 2.933c-.782 0-1.564.303-2.167.91l-2.53 2.534 2.933 2.936c2.018 2.017 2.275 5.186.395 7.075-.956.952-2.238 1.356-3.535 1.26a4.734 4.734 0 0 1-.986 5.229 4.718 4.718 0 0 1-4.204 1.3 4.718 4.718 0 0 1-7.974 4.206l-.445-.445a4.721 4.721 0 0 1-1.369 3.045 4.729 4.729 0 0 1-6.675 0l-1.331-1.335c-1.85 2.3-2.4 5.706-1.284 8.185a.831.831 0 0 1-.146 1.056l-5.287 5.295 6.305 6.31 6.277 6.29 4.488-4.493a11.383 11.383 0 0 1-.245-2.35V48.506c0-.458.369-.829.827-.829h21.602a.83.83 0 0 1 .832.829v1.335l11.45-11.085.01-.008 1.73-1.735a3.04 3.04 0 0 0 0-4.334 3.034 3.034 0 0 0-4.33 0l-.857.857a.83.83 0 1 1-1.173-1.173l.856-.857a3.045 3.045 0 0 0 0-4.338 3.036 3.036 0 0 0-4.33 0l-.856.857a.83.83 0 0 1-1.19.02.826.826 0 0 1 .017-1.189l.857-.857a3.045 3.045 0 0 0 0-4.338 3.034 3.034 0 0 0-4.33 0l-.857.857c-.782.765-1.933-.391-1.173-1.173l.858-.857a3.042 3.042 0 0 0 0-4.334 3.042 3.042 0 0 0-2.168-.907l.004-.003zm-21.412 1.33c-.782 0-1.56.303-2.162.911a3.039 3.039 0 0 0 0 4.334l12.181 12.195a3.028 3.028 0 0 0 4.33 0 3.04 3.04 0 0 0 0-4.334l-1.372-1.377h-.005l-1.227-1.23-9.578-9.593a3.065 3.065 0 0 0-2.167-.906zm-5.503 5.508c-.78 0-1.56.303-2.162.91a3.042 3.042 0 0 0 0 4.334l12.182 12.2a3.036 3.036 0 0 0 4.33 0 3.046 3.046 0 0 0 0-4.338L20.698 22.992a3.052 3.052 0 0 0-2.167-.91zm-2.591 8.5c-.781 0-1.56.3-2.166.907a3.04 3.04 0 0 0 0 4.335l6.288 6.297a3.034 3.034 0 0 0 4.33 0 3.046 3.046 0 0 0 0-4.338l-6.289-6.294a3.04 3.04 0 0 0-2.163-.906zm45.12 11.755-10.133 9.808v10.107c0 .902-.112 1.768-.303 2.592l4.538 4.545 6.28-6.284 6.305-6.314-5.203-5.212a.818.818 0 0 1-.354-.665.816.816 0 0 1 .138-.49c1.164-2.45.557-5.674-1.268-8.087zm-31.74 6.996v12.92c0 3.988 2.512 7.228 5.117 9.5 2.324 2.024 4.378 3.068 4.857 3.306.474-.238 2.533-1.282 4.858-3.307 2.604-2.271 5.116-5.511 5.116-9.5v-12.92H29.32zm15.88 6.252c.753-.026 1.148.89.607 1.422l-8.098 8.17a.834.834 0 0 1-1.177 0l-3.75-3.79a.825.825 0 0 1-.013-1.19.83.83 0 0 1 1.189.025l3.165 3.19 7.507-7.574a.842.842 0 0 1 .57-.253zm-37.494.906c-.496 0-.986.192-1.37.579l-3.95 3.955a1.917 1.917 0 0 0 0 2.74L16.16 77.56c.77.769 1.968.769 2.738 0l3.95-3.956c.77-.77.77-1.971 0-2.741l-.008-.009-6.88-6.888-6.886-6.895a1.93 1.93 0 0 0-1.368-.575v-.004zm63.178.3c-.491 0-.982.191-1.365.574l-.013.012-6.875 6.884-6.892 6.896c-.77.77-.77 1.972 0 2.74l3.951 3.956c.77.77 1.973.77 2.738 0l13.779-13.791a1.922 1.922 0 0 0 0-2.741l-3.951-3.956a1.944 1.944 0 0 0-1.369-.579l-.003.005z" fill="#FFFEFE"/></g></svg>