<svg width="70" height="69" fill="none" xmlns="http://www.w3.org/2000/svg"><path d="M17.455 44.5 1.96 59.996a4.985 4.985 0 0 0 0 7.047 4.985 4.985 0 0 0 7.044 0L24.5 51.544 17.455 44.5zM62.475 7.523c-9.366-9.364-24.602-9.364-33.963 0-8.528 8.521-9.266 21.895-2.275 31.298l-4.71 4.707 4.947 4.943 4.709-4.71c9.394 6.993 22.77 6.255 31.292-2.27 9.367-9.364 9.367-24.601 0-33.968zm-3.576 30.39c-7.394 7.397-19.424 7.397-26.816 0-7.393-7.391-7.393-19.421 0-26.816 7.395-7.392 19.424-7.392 26.816 0 7.394 7.397 7.394 19.425 0 26.817z" fill="#FFFEFE"/><path d="M54.436 13.81c-5.728-4.406-13.137-4.416-18.87-.015-.578.448-.741 1.355-.36 2.027.049.085.104.164.161.23.414.483 1.074.576 1.578.188 4.897-3.753 11.216-3.748 16.108.015.58.45 1.36.26 1.739-.413.38-.672.227-1.582-.356-2.032z" fill="#FFFEFE"/></svg>