<svg width="70" height="62" fill="none" xmlns="http://www.w3.org/2000/svg"><mask id="a" style="mask-type:luminance" maskUnits="userSpaceOnUse" x="0" y="11" width="65" height="51"><path d="M0 11.784h64.008V61.5H0V11.785z" fill="#fff"/></mask><g mask="url(#a)"><path d="M22.16 61.5c-5.701 0-10.932-1.701-14.817-4.836C2.303 52.596-.484 46.038.069 39.549c.555-6.49 4.413-12.47 10.068-15.606 5.469-3.032 12.31-3.07 17.428-.096 5.625 3.268 8.796 10.11 7.54 16.266-1.378 6.76-7.852 11.662-14.438 10.925-1.918-.215-3.3-1.958-3.087-3.894.213-1.936 1.94-3.332 3.857-3.116 2.935.328 6.188-2.216 6.826-5.337.654-3.212-1.145-6.966-4.184-8.732-3.05-1.772-7.202-1.707-10.578.166-3.58 1.984-6.12 5.922-6.47 10.03-.352 4.107 1.484 8.426 4.674 11 2.802 2.26 6.774 3.425 11.179 3.28 12.287-.404 21.933-10.1 26.863-19.038 3.094-5.61 5.41-12.197 7.29-20.731.42-1.902 2.284-3.1 4.169-2.678 1.882.423 3.07 2.307 2.652 4.208-2.031 9.22-4.576 16.41-8.007 22.632-7.476 13.556-20.022 22.238-32.741 22.656-.318.011-.636.016-.95.016z" fill="#FFFEFE"/></g><mask id="b" style="mask-type:luminance" maskUnits="userSpaceOnUse" x="49" y="0" width="21" height="21"><path d="M49.448.5H70v19.983H49.448V.5z" fill="#fff"/></mask><g mask="url(#b)"><path d="M49.504 16.449 63.187.5l6.842 19.936-20.525-3.988z" fill="#FFFEFE"/></g></svg>