<svg width="99" height="74" fill="none" xmlns="http://www.w3.org/2000/svg"><mask id="a" style="mask-type:luminance" maskUnits="userSpaceOnUse" x="24" y="31" width="43" height="43"><path d="M24.62 31.53H66.9V73.5H24.62V31.53z" fill="#fff"/></mask><g mask="url(#a)"><path d="M45.753 65.334c-7.07 0-12.823-5.733-12.823-12.779 0-7.045 5.753-12.777 12.823-12.777s12.822 5.732 12.822 12.777c0 7.046-5.752 12.779-12.822 12.779zm20.549-18.549c-.25-.874-1.109-1.407-2.014-1.322l-2.602.247c-.842.08-1.64-.401-2.062-1.134-.425-.737-.44-1.669.054-2.361l1.5-2.102c.531-.745.496-1.763-.144-2.417-.124-.127-.25-.252-.378-.376-.653-.635-1.665-.67-2.408-.143l-2.128 1.508c-.69.489-1.607.48-2.34.059l-.033-.019c-.736-.42-1.204-1.214-1.124-2.058l.245-2.572c.087-.908-.45-1.77-1.328-2.018-.175-.05-.35-.097-.527-.143-.882-.225-1.776.251-2.156 1.079l-1.082 2.358c-.353.77-1.152 1.214-1.999 1.212h-.046c-.847.002-1.646-.442-2-1.212l-1.081-2.358c-.38-.828-1.274-1.304-2.156-1.079-.177.046-.352.093-.527.143-.879.248-1.416 1.11-1.329 2.019l.245 2.57c.081.845-.387 1.638-1.123 2.06l-.033.018c-.733.421-1.65.43-2.34-.059l-2.129-1.509c-.743-.526-1.754-.491-2.407.143-.128.124-.254.25-.378.377-.64.654-.675 1.672-.144 2.417l1.5 2.102c.494.692.48 1.624.054 2.361-.422.733-1.22 1.213-2.062 1.134l-2.6-.246c-.907-.086-1.767.448-2.017 1.324-.048.17-.095.342-.14.515-.227.884.251 1.78 1.082 2.16l2.363 1.076c.773.352 1.217 1.167 1.217 2.016 0 .85-.444 1.664-1.217 2.016l-2.363 1.077c-.83.378-1.31 1.275-1.081 2.16.044.172.09.344.14.515.25.875 1.109 1.41 2.015 1.324l2.6-.246c.842-.08 1.64.401 2.063 1.134.425.737.44 1.67-.054 2.362l-1.5 2.1c-.531.746-.496 1.764.145 2.418.124.127.25.253.378.377.652.634 1.663.668 2.405.142l2.129-1.508c.69-.49 1.608-.48 2.342-.059l.03.018c.738.421 1.206 1.215 1.125 2.06l-.245 2.57c-.087.909.45 1.77 1.327 2.019.176.05.352.097.529.142.882.225 1.776-.25 2.156-1.079l1.082-2.358c.353-.77 1.152-1.213 1.999-1.212h.046c.847-.001 1.646.442 2 1.212l1.081 2.358c.38.828 1.274 1.304 2.156 1.08.177-.046.353-.094.528-.143.878-.249 1.414-1.11 1.327-2.018l-.245-2.571c-.08-.845.388-1.638 1.125-2.06l.032-.018c.733-.421 1.65-.43 2.34.059l2.13 1.508c.742.526 1.753.492 2.406-.143.127-.124.253-.249.377-.376.64-.654.676-1.672.144-2.418l-1.499-2.1c-.494-.693-.48-1.625-.054-2.362.422-.733 1.22-1.213 2.062-1.134l2.602.246c.905.086 1.764-.447 2.014-1.322.049-.172.096-.345.14-.519.228-.883-.25-1.78-1.081-2.158l-2.364-1.077c-.772-.352-1.216-1.167-1.216-2.016s.444-1.664 1.217-2.016l2.363-1.077c.83-.378 1.31-1.274 1.082-2.158a20.828 20.828 0 0 0-.141-.519z" fill="#FFFEFE"/></g><path d="M45.779 58.356c-3.489 0-6.327-2.662-6.327-5.934 0-3.272 2.838-5.934 6.327-5.934 3.488 0 6.326 2.662 6.326 5.934 0 3.272-2.838 5.934-6.326 5.934zm0-15.824c-5.815 0-10.545 4.437-10.545 9.89s4.73 9.89 10.545 9.89c5.813 0 10.544-4.437 10.544-9.89s-4.73-9.89-10.544-9.89z" fill="#FFFEFE"/><mask id="b" style="mask-type:luminance" maskUnits="userSpaceOnUse" x="0" y="0" width="43" height="43"><path d="M.5.5h42.208v42.07H.5V.5z" fill="#fff"/></mask><g mask="url(#b)"><path d="M21.545 34.228c-7.07 0-12.823-5.732-12.823-12.779 0-7.045 5.752-12.778 12.823-12.778 7.07 0 12.822 5.733 12.822 12.779s-5.752 12.778-12.822 12.778zm5.787 7.7c.878-.248 1.415-1.11 1.328-2.019l-.245-2.571c-.08-.845.388-1.638 1.125-2.06l.029-.016c.735-.422 1.654-.431 2.345.059l2.126 1.507c.743.526 1.754.492 2.407-.143.128-.124.254-.25.379-.377.64-.654.675-1.671.143-2.416l-1.5-2.101c-.494-.693-.48-1.625-.054-2.362.423-.733 1.22-1.213 2.063-1.133l2.6.246c.906.086 1.766-.448 2.015-1.323.05-.172.096-.344.14-.517.229-.885-.25-1.781-1.081-2.16l-2.363-1.077c-.773-.352-1.217-1.166-1.217-2.015 0-.85.444-1.665 1.217-2.017l2.363-1.076c.83-.379 1.31-1.275 1.082-2.16a21.215 21.215 0 0 0-.14-.516c-.25-.876-1.11-1.41-2.016-1.324l-2.6.247c-.842.08-1.64-.401-2.064-1.134-.425-.738-.439-1.67.055-2.362l1.5-2.102c.532-.745.497-1.762-.143-2.416a21.265 21.265 0 0 0-.38-.378c-.652-.634-1.663-.668-2.405-.142L31.912 7.58c-.69.489-1.608.48-2.342.059l-.03-.018c-.737-.42-1.205-1.214-1.125-2.059l.245-2.572c.087-.908-.45-1.77-1.327-2.018a21.19 21.19 0 0 0-.528-.142c-.883-.226-1.776.25-2.156 1.078l-1.083 2.359c-.353.77-1.152 1.213-1.998 1.211h-.046c-.847.002-1.646-.442-2-1.211L18.44 1.907C18.06 1.08 17.166.603 16.284.83a21.2 21.2 0 0 0-.528.142c-.878.248-1.414 1.11-1.327 2.017l.245 2.573c.08.845-.388 1.638-1.125 2.06-.01.005-.02.01-.03.017-.734.421-1.652.43-2.342-.06L9.048 6.07c-.742-.526-1.753-.492-2.406.142-.128.125-.254.25-.379.378-.64.654-.675 1.672-.143 2.417l1.5 2.101c.494.693.48 1.625.054 2.362-.423.732-1.221 1.213-2.064 1.134l-2.6-.247c-.905-.086-1.765.449-2.015 1.324-.048.171-.095.343-.14.516-.228.885.251 1.781 1.082 2.16L4.3 19.433c.773.352 1.218 1.168 1.218 2.017 0 .848-.445 1.663-1.218 2.015l-2.362 1.077c-.83.379-1.31 1.275-1.082 2.16.045.173.092.345.14.516.25.876 1.11 1.41 2.016 1.324l2.6-.246c.842-.08 1.64.4 2.062 1.132.426.737.44 1.67-.054 2.363l-1.5 2.1c-.531.745-.496 1.764.144 2.417.125.128.251.253.379.377.653.635 1.664.67 2.407.143l2.126-1.507c.691-.49 1.61-.48 2.345-.059l.03.017c.736.421 1.204 1.214 1.124 2.059l-.245 2.572c-.087.908.45 1.77 1.328 2.018.175.05.351.097.528.142.882.225 1.775-.25 2.154-1.078l1.083-2.359c.354-.77 1.153-1.213 2-1.211h.046c.846-.002 1.645.442 1.998 1.21l1.084 2.36c.38.827 1.272 1.303 2.154 1.078.177-.045.353-.092.528-.142z" fill="#FFFEFE"/></g><path d="M21.59 25.637c-2.281 0-4.136-1.849-4.136-4.122 0-2.271 1.855-4.12 4.135-4.12s4.135 1.849 4.135 4.12c0 2.273-1.855 4.122-4.135 4.122zm0-10.302c-3.421 0-6.204 2.773-6.204 6.18 0 3.41 2.783 6.182 6.203 6.182 3.42 0 6.202-2.772 6.202-6.181 0-3.408-2.782-6.181-6.202-6.181zM77.41 41.754c-7.092 0-12.863-5.752-12.863-12.82 0-7.069 5.771-12.82 12.864-12.82 7.093 0 12.865 5.751 12.865 12.82 0 7.068-5.772 12.82-12.865 12.82zm16.081-12.82v-.019c-.001-.849.444-1.65 1.217-2.002l2.38-1.084c.83-.379 1.31-1.275 1.082-2.16a21.608 21.608 0 0 0-.144-.527c-.25-.875-1.11-1.41-2.015-1.324l-2.62.248c-.841.08-1.632-.385-2.053-1.119l-.019-.032c-.426-.737-.434-1.66.06-2.352l1.51-2.116c.532-.745.498-1.763-.143-2.417a21.58 21.58 0 0 0-.386-.385c-.654-.635-1.665-.67-2.409-.143L87.81 15.02c-.69.49-1.609.48-2.343.059a8.109 8.109 0 0 0-.04-.023c-.736-.42-1.203-1.213-1.123-2.058l.247-2.59c.087-.909-.45-1.77-1.328-2.019-.178-.05-.357-.098-.538-.144-.883-.226-1.777.25-2.157 1.079l-1.09 2.374c-.352.77-1.151 1.213-1.998 1.211h-.056c-.847.002-1.646-.442-2-1.211l-1.088-2.374c-.38-.828-1.275-1.305-2.157-1.08-.18.047-.36.095-.538.145-.878.25-1.415 1.111-1.329 2.02l.248 2.59c.08.844-.387 1.636-1.124 2.057l-.041.024c-.733.421-1.65.43-2.34-.06l-2.144-1.518c-.743-.527-1.755-.492-2.407.142-.131.127-.26.256-.388.386-.64.654-.674 1.671-.143 2.416l1.512 2.118c.493.691.485 1.614.06 2.35l-.019.032c-.422.734-1.213 1.2-2.055 1.12l-2.619-.248c-.906-.085-1.766.45-2.015 1.324-.05.175-.098.35-.143.527-.228.885.251 1.781 1.082 2.16l2.379 1.084c.773.352 1.217 1.153 1.216 2.002v.037c.001.85-.443 1.65-1.216 2.002l-2.379 1.085c-.831.379-1.31 1.276-1.082 2.16.045.176.093.352.143.526.25.875 1.109 1.41 2.015 1.324l2.618-.248c.843-.08 1.633.386 2.055 1.12l.019.032c.426.736.434 1.66-.06 2.351l-1.51 2.117c-.532.745-.497 1.764.143 2.418.127.13.256.258.387.385.652.634 1.664.669 2.407.143l2.143-1.52c.69-.489 1.608-.48 2.341-.059l.04.024c.738.42 1.205 1.213 1.124 2.057l-.247 2.59c-.087.909.45 1.77 1.328 2.02.179.05.36.099.54.145.883.224 1.775-.252 2.155-1.079l1.09-2.376c.353-.769 1.152-1.213 1.999-1.21h.056c.847-.003 1.646.441 1.999 1.21l1.09 2.376c.38.827 1.272 1.303 2.154 1.079.182-.046.362-.095.542-.146.877-.248 1.413-1.11 1.326-2.017l-.247-2.592c-.08-.844.387-1.637 1.124-2.057l.038-.022c.735-.422 1.654-.431 2.345.058l2.141 1.518c.743.527 1.755.492 2.409-.143.13-.126.258-.254.385-.384.641-.654.676-1.673.144-2.418l-1.51-2.116c-.494-.692-.485-1.616-.06-2.353l.019-.03c.422-.734 1.212-1.2 2.055-1.12l2.618.247c.906.086 1.766-.449 2.016-1.324.05-.174.097-.35.142-.526.228-.884-.25-1.781-1.081-2.16l-2.38-1.085c-.773-.352-1.218-1.153-1.217-2.002v-.018z" fill="#FFFEFE"/><path d="M77.412 33.26c-2.394 0-4.342-1.94-4.342-4.327 0-2.386 1.948-4.327 4.342-4.327 2.393 0 4.342 1.941 4.342 4.327 0 2.387-1.949 4.328-4.342 4.328zm0-12.98c-4.788 0-8.684 3.882-8.684 8.653 0 4.772 3.896 8.654 8.684 8.654 4.789 0 8.683-3.882 8.683-8.654 0-4.771-3.894-8.653-8.683-8.653z" fill="#FFFEFE"/></svg>