<svg width="95" height="121" fill="none" xmlns="http://www.w3.org/2000/svg"><path d="M48.505 99.5C25.587 99.5 7 108.9 7 120.5h83c0-11.6-18.576-21-41.495-21zM75.716 22.043C69.91 23.903 65.659 28.17 65 32.324a25.845 25.845 0 0 1 2.403-1.438 25.797 25.797 0 0 1 3.997-1.712c6.516-2.108 13.968.682 13.968.682s-10.428.67-16.148 5.134c-.967.757-1.988 1.489-2.955 2.344 2.456 3.051 7.888 4.093 13.597 2.257C86.878 37.334 95 25.292 95 25.292s-12.257-5.506-19.284-3.249zM24.39 36.19c-.773-.523-10.307-5.782-10.307-5.782s8.434 0 11.946 1.803c1.323.671 2.667 1.417 3.968 2.337.127-4.563-4.422-9.524-10.835-11.538C12.158 20.81 0 26.442 0 26.442S8.158 38.44 15.163 40.64c5.1 1.604 9.967.883 12.665-1.492a20.93 20.93 0 0 0-3.439-2.959zM45.28 50.468c.148.33.306.688.455 1.032.353-3.187.763-7.406 1.014-11.651.065-1.07.111-2.154.158-3.212.037-1.058.074-2.104.084-3.11.009-.51.009-1.008.009-1.492s0-.956-.01-1.428c0-.459-.018-.918-.027-1.35-.01-.434-.028-.855-.047-1.263-.018-.408-.716-5.494-.716-5.494s-.233 5.086-.27 5.469c-.028.395-.065.803-.102 1.21-.037.421-.084.855-.13 1.3-.047.447-.103.906-.168 1.365-.056.471-.12.943-.195 1.427-.13.97-.288 1.963-.456 2.97a197.983 197.983 0 0 1-.54 3.047c-.418 2.23-.883 4.449-1.339 6.489.447.854.902 1.746 1.34 2.676.334.689.641 1.352.94 2.014z" fill="#173614"/><path d="M79.437 29.516c-.192 0-.426-.025-.713-.012-.276 0-.606.012-.957.012-.361.026-.754.051-1.19.09-.436.063-.904.088-1.403.19-1 .152-2.127.432-3.328.839a24.208 24.208 0 0 0-3.795 1.665c-1.308.711-2.647 1.6-3.976 2.63a37.037 37.037 0 0 0-3.87 3.533 50.201 50.201 0 0 0-3.583 4.232c-2.253 3-4.241 6.278-5.921 9.48a93.048 93.048 0 0 0-2.54 5.275 95.453 95.453 0 0 0-1.585 3.787c-.106.28-.212.546-.319.826.245.61.49 1.233.734 1.843-.245-.623-.49-1.233-.734-1.843a79.492 79.492 0 0 0-.829-1.995c-.34-.801-.68-1.589-1.042-2.364a105.392 105.392 0 0 0-2.445-5.07c-.34-.649-.68-1.284-1.031-1.92a72.189 72.189 0 0 0-2.924-4.867c-1.392-2.11-2.86-4.041-4.37-5.732-1.498-1.69-3.04-3.139-4.55-4.295-1.509-1.17-2.986-2.046-4.326-2.67-1.35-.622-6.74-1.753-6.74-1.753s5.092 2.059 6.283 2.872c1.19.826 2.456 1.907 3.71 3.24 1.255 1.335 2.498 2.924 3.679 4.741 1.18 1.805 2.296 3.838 3.327 6.011 1.031 2.174 1.977 4.512 2.838 6.94a102.731 102.731 0 0 1 2.34 7.497c1.392 5.11 2.476 10.332 3.306 15.289.829 4.943 1.413 9.62 1.817 13.623.415 4.004.649 7.346.777 9.672.063 1.156.106 2.071.127 2.668.01.293.021.521.021.674v.216c.01.343.043.724.096 1.067.563 3.711 3.54 6.164 6.634 5.478 3.104-.674 5.156-4.232 4.582-7.93l-.022-.127s-.01-.102-.042-.293a37.61 37.61 0 0 1-.128-.788c-.117-.673-.287-1.652-.52-2.884a243.238 243.238 0 0 0-2.137-10.04 222.271 222.271 0 0 0-3.742-13.878A161.826 161.826 0 0 0 49 69.472c.35-1.525.861-3.584 1.573-5.986.022-.076.043-.14.064-.216a93.856 93.856 0 0 1 3.168-8.997c1.319-3.203 2.934-6.52 4.816-9.595a47.637 47.637 0 0 1 3.03-4.385 36.625 36.625 0 0 1 3.37-3.762 27.731 27.731 0 0 1 3.55-2.935 22.99 22.99 0 0 1 3.509-2.02c1.127-.522 2.19-.929 3.157-1.195.479-.153.936-.242 1.361-.356.425-.077.819-.153 1.17-.216.35-.051.67-.09.946-.128.276-.038.51-.05.701-.063.383-.038.585-.05.585-.05s-.18-.039-.563-.052z" fill="#173614"/><path d="M54 18.333C53.933 10.227 45.853.5 45.853.5S37.936 10.39 38 18.495c.054 6.547 2.438 12.072 5.686 13.93.054-.349.108-.648.14-.935.065-.45.13-.873.183-1.31.054-.399.108-.798.151-1.234.044-.4.087-.773.12-1.148.031-.324 1.445-10.662 1.445-10.662s2.578 6.06 2.47 10.737c-.01.412.043.848.065 1.285.021.474.032.923.032 1.36.011.46.011.947.011 1.42v.562c3.344-1.783 5.75-7.457 5.696-14.167z" fill="#173614"/></svg>