<svg width="202" height="56" viewBox="0 0 202 56" fill="none" xmlns="http://www.w3.org/2000/svg">
<g clip-path="url(#clip0_1585_3784)">
<path d="M58 54.7777C39.522 49.7702 30.8367 30.5451 43.4077 18.0308C55.4803 6.00711 43.2969 -9.39512 31.2798 7.39553C24.0898 17.4477 19.6687 48.6872 58 54.7777Z" fill="#5876B3"/>
<path d="M24.9851 53.769C13.6878 53.7505 9.05449 48.493 7.65156 44.1982C6.19326 39.746 -1.54131 42.5413 0.276958 47.7155C2.769 54.7872 16.6598 56.0183 24.9851 53.769Z" fill="#5A8356"/>
<path d="M49.3794 54.8238C36.107 53.8982 19.9179 45.7435 24.3021 35.7099C28.5108 26.0835 13.5309 19.2895 11.2234 31.7575C9.83897 39.2272 15.9952 56.9712 49.3794 54.8238Z" fill="#F2E157"/>
</g>
<path d="M62.6509 0.0557104C63.8066 0.0557104 64.7123 0.153204 65.368 0.34819C66.0237 0.533891 66.4904 0.858867 66.7683 1.32312C67.0461 1.78737 67.185 2.43733 67.185 3.27298C67.185 4.10864 67.0517 4.75859 66.7849 5.22284C66.5293 5.67781 66.1015 5.99814 65.5014 6.18384C64.9013 6.36954 64.0956 6.4624 63.0843 6.4624C62.5508 6.4624 62.0174 6.44383 61.484 6.40668C60.9617 6.36026 60.4727 6.30455 60.017 6.23955C59.5614 6.16527 59.1724 6.09099 58.8502 6.01671C58.5279 5.93315 58.3056 5.86351 58.1834 5.8078L58.2334 4.58217C58.9224 4.58217 59.6392 4.58217 60.3838 4.58217C61.1284 4.58217 61.8618 4.58217 62.5842 4.58217C62.9731 4.57289 63.2732 4.53575 63.4843 4.47075C63.6955 4.39647 63.84 4.26648 63.9178 4.08078C64.0067 3.88579 64.0511 3.61653 64.0511 3.27298C64.0511 2.92015 64.0067 2.64624 63.9178 2.45125C63.84 2.25627 63.6955 2.12628 63.4843 2.06128C63.2732 1.987 62.9731 1.94986 62.5842 1.94986C61.5062 1.94986 60.5838 1.9545 59.817 1.96379C59.0502 1.97307 58.5279 1.99164 58.25 2.0195L58 0.194986C58.489 0.148561 58.9502 0.116063 59.3836 0.0974934C59.817 0.078923 60.2893 0.0696378 60.8005 0.0696378C61.3117 0.0603529 61.9285 0.0557104 62.6509 0.0557104ZM61.1339 0.194986V9.80501H58V0.194986H61.1339Z" fill="#0D490D"/>
<path d="M71.6327 0.194986V7.11699C71.6327 7.30269 71.7049 7.45125 71.8494 7.56267C71.9939 7.66481 72.1884 7.71588 72.4329 7.71588H76.3669L76.5169 9.67967C75.6834 9.76323 74.8055 9.80966 73.8831 9.81894C72.9607 9.83751 72.0494 9.8468 71.1493 9.8468C70.3158 9.8468 69.6657 9.65181 69.1989 9.26184C68.7433 8.87187 68.5155 8.36583 68.5155 7.74373V0.194986H71.6327Z" fill="#0D490D"/>
<path d="M83.6828 0.194986C83.9384 0.194986 84.1607 0.255339 84.3496 0.376045C84.5497 0.49675 84.683 0.663881 84.7497 0.877438L87.9003 9.80501H84.6997L82.6826 3.17549C82.6382 3.01764 82.5993 2.85051 82.566 2.67409C82.5326 2.48839 82.4993 2.31662 82.4659 2.15877H82.0159C81.9936 2.31662 81.9603 2.48839 81.9158 2.67409C81.8825 2.85051 81.8436 3.01764 81.7992 3.17549L79.7821 9.80501H76.5815L79.7321 0.877438C79.7988 0.663881 79.9266 0.49675 80.1155 0.376045C80.3155 0.255339 80.5434 0.194986 80.799 0.194986H83.6828ZM85.2665 5.64067V7.52089H79.2153V5.64067H85.2665Z" fill="#0D490D"/>
<path d="M93.5401 0.194986V9.80501H90.4062V0.194986H93.5401ZM96.8574 0.194986V2.18663H87.0723V0.194986H96.8574Z" fill="#0D490D"/>
<path d="M100.663 0.153204C101.285 0.153204 101.924 0.157846 102.58 0.167131C103.235 0.167131 103.874 0.181059 104.497 0.208914C105.13 0.227484 105.703 0.264624 106.214 0.320334L106.064 2.1727H101.98C101.724 2.1727 101.524 2.22841 101.38 2.33983C101.246 2.44197 101.18 2.58589 101.18 2.77159V9.80501H98.0456V2.22841C98.0456 1.60631 98.2846 1.10492 98.7624 0.724235C99.2514 0.343547 99.8848 0.153204 100.663 0.153204ZM98.3457 4.15042H105.447V5.91922H98.3457V4.15042Z" fill="#0D490D"/>
<path d="M112.322 0C113.278 0 114.083 0.078923 114.739 0.236769C115.395 0.394615 115.928 0.663882 116.339 1.04457C116.751 1.41597 117.045 1.92201 117.223 2.56267C117.401 3.20334 117.49 4.01578 117.49 5C117.49 5.97493 117.401 6.78737 117.223 7.43733C117.045 8.07799 116.751 8.58867 116.339 8.96936C115.928 9.34076 115.395 9.60539 114.739 9.76323C114.083 9.92108 113.278 10 112.322 10C111.377 10 110.572 9.92108 109.905 9.76323C109.249 9.60539 108.716 9.34076 108.305 8.96936C107.893 8.58867 107.599 8.07799 107.421 7.43733C107.243 6.78737 107.154 5.97493 107.154 5C107.154 4.01578 107.243 3.20334 107.421 2.56267C107.599 1.92201 107.893 1.41597 108.305 1.04457C108.716 0.663882 109.249 0.394615 109.905 0.236769C110.572 0.078923 111.377 0 112.322 0ZM112.322 1.99164C111.833 1.99164 111.45 2.07521 111.172 2.24234C110.905 2.40947 110.716 2.71124 110.605 3.14763C110.494 3.58403 110.438 4.20149 110.438 5C110.438 5.79851 110.494 6.41597 110.605 6.85237C110.716 7.28876 110.905 7.59053 111.172 7.75766C111.45 7.92479 111.833 8.00836 112.322 8.00836C112.811 8.00836 113.189 7.92479 113.456 7.75766C113.733 7.59053 113.922 7.28876 114.022 6.85237C114.134 6.41597 114.189 5.79851 114.189 5C114.189 4.20149 114.134 3.58403 114.022 3.14763C113.922 2.71124 113.733 2.40947 113.456 2.24234C113.189 2.07521 112.811 1.99164 112.322 1.99164Z" fill="#0D490D"/>
<path d="M123.812 0.0557104C124.89 0.0557104 125.767 0.143918 126.445 0.320334C127.123 0.49675 127.618 0.793872 127.929 1.2117C128.251 1.62024 128.412 2.20056 128.412 2.95265C128.412 3.36119 128.34 3.73259 128.196 4.06685C128.062 4.40111 127.829 4.67502 127.496 4.88858C127.162 5.09285 126.707 5.22284 126.129 5.27855V5.36212C126.34 5.38069 126.562 5.4364 126.795 5.52925C127.04 5.6221 127.262 5.7753 127.462 5.98886C127.673 6.19313 127.823 6.47632 127.912 6.83844L128.862 9.80501H125.579L124.762 6.92201C124.684 6.62488 124.562 6.4299 124.395 6.33705C124.228 6.23491 123.984 6.18384 123.662 6.18384C122.861 6.17456 122.2 6.16992 121.678 6.16992C121.155 6.16992 120.711 6.16527 120.344 6.15599C119.989 6.1467 119.65 6.13278 119.327 6.11421L119.377 4.28969H123.745C124.145 4.28969 124.451 4.2572 124.662 4.1922C124.884 4.1272 125.04 4.01114 125.128 3.84401C125.217 3.6676 125.262 3.42618 125.262 3.11978C125.262 2.80409 125.217 2.56267 125.128 2.39554C125.04 2.22841 124.884 2.11235 124.662 2.04735C124.451 1.98236 124.145 1.94986 123.745 1.94986C122.645 1.94986 121.711 1.9545 120.944 1.96379C120.189 1.97307 119.672 1.987 119.394 2.00557L119.144 0.194986C119.633 0.148561 120.094 0.116063 120.528 0.0974934C120.961 0.078923 121.433 0.0696378 121.945 0.0696378C122.467 0.0603529 123.089 0.0557104 123.812 0.0557104ZM122.211 0.194986V9.80501H119.144V0.194986H122.211Z" fill="#0D490D"/>
<path d="M142.45 0.194986C143.172 0.194986 143.544 0.501393 143.567 1.11421L144 9.80501H141.149L140.783 2.1727H140.516L139.049 7.56267C138.938 8.10121 138.538 8.37047 137.849 8.37047H136.099C135.421 8.37047 135.015 8.10121 134.882 7.56267L133.415 2.1727H133.148L132.831 9.80501H129.981L130.398 1.11421C130.431 0.501393 130.803 0.194986 131.514 0.194986H134.315C134.982 0.194986 135.376 0.468895 135.498 1.01671L136.632 5.29248C136.688 5.51532 136.732 5.74745 136.765 5.98886C136.81 6.22098 136.849 6.45775 136.882 6.69916H137.065C137.11 6.45775 137.149 6.22098 137.182 5.98886C137.215 5.74745 137.26 5.51068 137.315 5.27855L138.399 1.01671C138.532 0.468895 138.938 0.194986 139.616 0.194986H142.45Z" fill="#0D490D"/>
<path d="M62.8954 18C63.8008 18 64.5641 18.0789 65.1853 18.2368C65.8064 18.3946 66.3117 18.6639 66.7013 19.0446C67.0908 19.416 67.3698 19.922 67.5382 20.5627C67.7067 21.2033 67.7909 22.0158 67.7909 23C67.7909 23.9749 67.7067 24.7874 67.5382 25.4373C67.3698 26.078 67.0908 26.5887 66.7013 26.9694C66.3117 27.3408 65.8064 27.6054 65.1853 27.7632C64.5641 27.9211 63.8008 28 62.8954 28C62.0006 28 61.2373 27.9211 60.6056 27.7632C59.9845 27.6054 59.4792 27.3408 59.0896 26.9694C58.7001 26.5887 58.4211 26.078 58.2527 25.4373C58.0842 24.7874 58 23.9749 58 23C58 22.0158 58.0842 21.2033 58.2527 20.5627C58.4211 19.922 58.7001 19.416 59.0896 19.0446C59.4792 18.6639 59.9845 18.3946 60.6056 18.2368C61.2373 18.0789 62.0006 18 62.8954 18ZM62.8954 19.9916C62.4322 19.9916 62.069 20.0752 61.8058 20.2423C61.5531 20.4095 61.3742 20.7112 61.2689 21.1476C61.1636 21.584 61.111 22.2015 61.111 23C61.111 23.7985 61.1636 24.416 61.2689 24.8524C61.3742 25.2888 61.5531 25.5905 61.8058 25.7577C62.069 25.9248 62.4322 26.0084 62.8954 26.0084C63.3587 26.0084 63.7166 25.9248 63.9693 25.7577C64.2325 25.5905 64.4115 25.2888 64.5062 24.8524C64.6115 24.416 64.6641 23.7985 64.6641 23C64.6641 22.2015 64.6115 21.584 64.5062 21.1476C64.4115 20.7112 64.2325 20.4095 63.9693 20.2423C63.7166 20.0752 63.3587 19.9916 62.8954 19.9916Z" fill="#0D490D"/>
<path d="M71.8058 18.1532C72.3954 18.1532 73.0007 18.1578 73.6219 18.1671C74.243 18.1671 74.8484 18.1811 75.4379 18.2089C76.038 18.2275 76.5802 18.2646 77.0645 18.3203L76.9224 20.1727H73.0534C72.8112 20.1727 72.6217 20.2284 72.4849 20.3398C72.3585 20.442 72.2954 20.5859 72.2954 20.7716V27.805H69.3265V20.2284C69.3265 19.6063 69.5529 19.1049 70.0056 18.7242C70.4688 18.3435 71.0689 18.1532 71.8058 18.1532ZM69.6108 22.1504H76.3381V23.9192H69.6108V22.1504Z" fill="#0D490D"/>
<path d="M83.7558 18.1532C84.3664 18.1532 84.9875 18.1532 85.6192 18.1532C86.2614 18.1532 86.8878 18.1671 87.4984 18.195C88.1196 18.2136 88.6881 18.2507 89.2039 18.3064L89.0618 20.1727H84.9875C84.7559 20.1727 84.5769 20.2284 84.4506 20.3398C84.3243 20.442 84.2611 20.5859 84.2611 20.7716V25.2284C84.2611 25.4141 84.3243 25.5627 84.4506 25.6741C84.5769 25.7762 84.7559 25.8273 84.9875 25.8273H89.0618L89.2039 27.6936C88.6881 27.74 88.1196 27.7772 87.4984 27.805C86.8878 27.8236 86.2614 27.8329 85.6192 27.8329C84.9875 27.8422 84.3664 27.8468 83.7558 27.8468C83.0293 27.8468 82.4398 27.6565 81.9871 27.2758C81.5344 26.8951 81.308 26.3983 81.308 25.7855V20.2145C81.308 19.5924 81.5344 19.0956 81.9871 18.7242C82.4398 18.3435 83.0293 18.1532 83.7558 18.1532ZM81.5923 21.9694H88.4933V23.7382H81.5923V21.9694Z" fill="#0D490D"/>
<path d="M95.0162 18.0279C95.5636 18.0279 96.0268 18.0418 96.4058 18.0696C96.7954 18.0975 97.148 18.1346 97.4639 18.1811C97.7902 18.2275 98.1219 18.2925 98.4588 18.376L98.2377 20.2981C97.8797 20.2795 97.5481 20.2702 97.2428 20.2702C96.9375 20.2609 96.6111 20.2563 96.2637 20.2563C95.9163 20.247 95.5004 20.2423 95.0162 20.2423C94.5845 20.2423 94.2424 20.3213 93.9897 20.4791C93.7476 20.637 93.5791 20.9155 93.4844 21.3148C93.3896 21.714 93.3422 22.2758 93.3422 23C93.3422 23.7242 93.3896 24.286 93.4844 24.6852C93.5791 25.0845 93.7476 25.363 93.9897 25.5209C94.2424 25.6787 94.5845 25.7577 95.0162 25.7577C95.7847 25.7577 96.4216 25.7484 96.927 25.7298C97.4428 25.7112 97.9587 25.6787 98.4746 25.6323L98.6956 27.5404C98.1692 27.6982 97.6271 27.8097 97.0691 27.8747C96.5216 27.9396 95.8373 27.9721 95.0162 27.9721C93.8476 27.9721 92.9106 27.8143 92.2052 27.4986C91.5104 27.1736 91.005 26.649 90.6892 25.9248C90.3839 25.2006 90.2313 24.2256 90.2313 23C90.2313 21.7744 90.3839 20.7994 90.6892 20.0752C91.005 19.351 91.5104 18.831 92.2052 18.5153C92.9106 18.1903 93.8476 18.0279 95.0162 18.0279Z" fill="#0D490D"/>
<path d="M104.411 18C105.316 18 106.079 18.0789 106.7 18.2368C107.321 18.3946 107.827 18.6639 108.216 19.0446C108.606 19.416 108.885 19.922 109.053 20.5627C109.222 21.2033 109.306 22.0158 109.306 23C109.306 23.9749 109.222 24.7874 109.053 25.4373C108.885 26.078 108.606 26.5887 108.216 26.9694C107.827 27.3408 107.321 27.6054 106.7 27.7632C106.079 27.9211 105.316 28 104.411 28C103.516 28 102.752 27.9211 102.121 27.7632C101.5 27.6054 100.994 27.3408 100.605 26.9694C100.215 26.5887 99.9362 26.078 99.7677 25.4373C99.5993 24.7874 99.5151 23.9749 99.5151 23C99.5151 22.0158 99.5993 21.2033 99.7677 20.5627C99.9362 19.922 100.215 19.416 100.605 19.0446C100.994 18.6639 101.5 18.3946 102.121 18.2368C102.752 18.0789 103.516 18 104.411 18ZM104.411 19.9916C103.947 19.9916 103.584 20.0752 103.321 20.2423C103.068 20.4095 102.889 20.7112 102.784 21.1476C102.679 21.584 102.626 22.2015 102.626 23C102.626 23.7985 102.679 24.416 102.784 24.8524C102.889 25.2888 103.068 25.5905 103.321 25.7577C103.584 25.9248 103.947 26.0084 104.411 26.0084C104.874 26.0084 105.232 25.9248 105.484 25.7577C105.748 25.5905 105.927 25.2888 106.021 24.8524C106.127 24.416 106.179 23.7985 106.179 23C106.179 22.2015 106.127 21.584 106.021 21.1476C105.927 20.7112 105.748 20.4095 105.484 20.2423C105.232 20.0752 104.874 19.9916 104.411 19.9916Z" fill="#0D490D"/>
<path d="M115.374 23.4735V25.0056H110.715V23.4735H115.374Z" fill="#0D490D"/>
<path d="M119.472 18.1532C120.083 18.1532 120.704 18.1532 121.336 18.1532C121.978 18.1532 122.604 18.1671 123.215 18.195C123.836 18.2136 124.405 18.2507 124.92 18.3064L124.778 20.1727H120.704C120.472 20.1727 120.293 20.2284 120.167 20.3398C120.041 20.442 119.978 20.5859 119.978 20.7716V25.2284C119.978 25.4141 120.041 25.5627 120.167 25.6741C120.293 25.7762 120.472 25.8273 120.704 25.8273H124.778L124.92 27.6936C124.405 27.74 123.836 27.7772 123.215 27.805C122.604 27.8236 121.978 27.8329 121.336 27.8329C120.704 27.8422 120.083 27.8468 119.472 27.8468C118.746 27.8468 118.156 27.6565 117.704 27.2758C117.251 26.8951 117.025 26.3983 117.025 25.7855V20.2145C117.025 19.5924 117.251 19.0956 117.704 18.7242C118.156 18.3435 118.746 18.1532 119.472 18.1532ZM117.309 21.9694H124.21V23.7382H117.309V21.9694Z" fill="#0D490D"/>
<path d="M136.036 18.195V26.8858C136.036 27.4986 135.694 27.805 135.01 27.805H133.683C133.367 27.805 133.13 27.74 132.973 27.61C132.825 27.48 132.672 27.2897 132.515 27.039L129.846 22.9443C129.719 22.7122 129.593 22.4615 129.467 22.1922C129.34 21.9229 129.235 21.6537 129.151 21.3844H129.009C129.051 21.6537 129.082 21.9322 129.104 22.2201C129.135 22.4986 129.151 22.7679 129.151 23.0279V27.805H126.387V19.1142C126.387 18.5014 126.735 18.195 127.43 18.195H128.74C129.056 18.195 129.288 18.26 129.435 18.39C129.583 18.52 129.74 18.7103 129.909 18.961L132.467 22.9025C132.615 23.1253 132.757 23.3714 132.894 23.6407C133.03 23.9099 133.162 24.1931 133.288 24.4903H133.431C133.399 24.2024 133.373 23.9192 133.352 23.6407C133.33 23.3621 133.32 23.0836 133.32 22.805L133.304 18.195H136.036Z" fill="#0D490D"/>
<path d="M140.307 18.1532C140.918 18.1532 141.539 18.1532 142.17 18.1532C142.813 18.1532 143.439 18.1671 144.05 18.195C144.671 18.2136 145.239 18.2507 145.755 18.3064L145.613 20.1727H141.539C141.307 20.1727 141.128 20.2284 141.002 20.3398C140.875 20.442 140.812 20.5859 140.812 20.7716V25.2284C140.812 25.4141 140.875 25.5627 141.002 25.6741C141.128 25.7762 141.307 25.8273 141.539 25.8273H145.613L145.755 27.6936C145.239 27.74 144.671 27.7772 144.05 27.805C143.439 27.8236 142.813 27.8329 142.17 27.8329C141.539 27.8422 140.918 27.8468 140.307 27.8468C139.581 27.8468 138.991 27.6565 138.538 27.2758C138.086 26.8951 137.859 26.3983 137.859 25.7855V20.2145C137.859 19.5924 138.086 19.0956 138.538 18.7242C138.991 18.3435 139.581 18.1532 140.307 18.1532ZM138.143 21.9694H145.044V23.7382H138.143V21.9694Z" fill="#0D490D"/>
<path d="M151.644 18.0557C152.665 18.0557 153.497 18.1439 154.139 18.3203C154.781 18.4968 155.249 18.7939 155.544 19.2117C155.85 19.6202 156.002 20.2006 156.002 20.9526C156.002 21.3612 155.934 21.7326 155.797 22.0669C155.671 22.4011 155.45 22.675 155.134 22.8886C154.818 23.0929 154.386 23.2228 153.839 23.2786V23.3621C154.039 23.3807 154.249 23.4364 154.47 23.5292C154.702 23.6221 154.913 23.7753 155.102 23.9889C155.302 24.1931 155.444 24.4763 155.528 24.8384L156.429 27.805H153.318L152.544 24.922C152.47 24.6249 152.354 24.4299 152.196 24.337C152.039 24.2349 151.807 24.1838 151.502 24.1838C150.744 24.1746 150.117 24.1699 149.622 24.1699C149.128 24.1699 148.706 24.1653 148.359 24.156C148.022 24.1467 147.701 24.1328 147.396 24.1142L147.443 22.2897H151.581C151.96 22.2897 152.249 22.2572 152.449 22.1922C152.66 22.1272 152.807 22.0111 152.891 21.844C152.975 21.6676 153.018 21.4262 153.018 21.1198C153.018 20.8041 152.975 20.5627 152.891 20.3955C152.807 20.2284 152.66 20.1123 152.449 20.0474C152.249 19.9824 151.96 19.9499 151.581 19.9499C150.538 19.9499 149.654 19.9545 148.928 19.9638C148.212 19.9731 147.722 19.987 147.459 20.0056L147.222 18.195C147.685 18.1486 148.122 18.1161 148.533 18.0975C148.943 18.0789 149.391 18.0696 149.875 18.0696C150.37 18.0604 150.959 18.0557 151.644 18.0557ZM150.128 18.195V27.805H147.222V18.195H150.128Z" fill="#0D490D"/>
<path d="M162.29 18C162.827 18 163.301 18.0139 163.711 18.0418C164.133 18.0696 164.522 18.1114 164.88 18.1671C165.249 18.2136 165.612 18.2832 165.97 18.376L165.749 20.2702C165.37 20.2609 165.001 20.2563 164.643 20.2563C164.285 20.247 163.922 20.2423 163.554 20.2423C163.185 20.2331 162.774 20.2284 162.322 20.2284C161.953 20.2284 161.643 20.2656 161.39 20.3398C161.148 20.4141 160.953 20.5534 160.806 20.7577C160.669 20.9619 160.569 21.2498 160.506 21.6212C160.443 21.9833 160.411 22.4475 160.411 23.0139C160.411 23.7289 160.458 24.286 160.553 24.6852C160.658 25.0845 160.827 25.363 161.058 25.5209C161.29 25.6787 161.611 25.7577 162.022 25.7577C162.295 25.7577 162.543 25.7437 162.764 25.7159C162.996 25.6787 163.201 25.6323 163.38 25.5766C163.569 25.5116 163.733 25.4559 163.869 25.4095L164.169 26.5515C164.033 26.7372 163.811 26.9461 163.506 27.1783C163.211 27.4011 162.843 27.5961 162.401 27.7632C161.959 27.9211 161.448 28 160.869 28C160.048 28 159.369 27.8329 158.832 27.4986C158.305 27.1551 157.916 26.6165 157.663 25.883C157.421 25.1495 157.3 24.1885 157.3 23C157.3 21.7558 157.458 20.7716 157.774 20.0474C158.1 19.3138 158.627 18.7892 159.353 18.4735C160.09 18.1578 161.069 18 162.29 18ZM166.396 22.2758V27.805H164.217L163.822 26.3287L163.554 25.8691V22.2758H166.396Z" fill="#0D490D"/>
<path d="M177 18.195L173.321 24.8524H170.494L166.814 18.195H169.878L171.457 21.454C171.552 21.649 171.62 21.8626 171.662 22.0947C171.715 22.3175 171.768 22.5311 171.82 22.7354H172.01C172.052 22.5311 172.099 22.3129 172.152 22.0808C172.215 21.8487 172.289 21.6351 172.373 21.4401L173.936 18.195H177ZM173.399 23.3343V27.805H170.431V23.3343H173.399Z" fill="#0D490D"/>
<path d="M60.8817 36.195V45.805H58V36.195H60.8817Z" fill="#0D490D"/>
<path d="M72.2165 36.195V44.8858C72.2165 45.4986 71.8808 45.805 71.2095 45.805H69.9081C69.5982 45.805 69.3658 45.74 69.2109 45.61C69.0663 45.48 68.9165 45.2897 68.7616 45.039L66.1433 40.9443C66.0194 40.7122 65.8954 40.4615 65.7715 40.1922C65.6475 39.9229 65.5443 39.6537 65.4616 39.3844H65.3222C65.3635 39.6537 65.3945 39.9322 65.4151 40.2201C65.4461 40.4986 65.4616 40.7679 65.4616 41.0279V45.805H62.7504V37.1142C62.7504 36.5014 63.0912 36.195 63.7729 36.195H65.0588C65.3687 36.195 65.5959 36.26 65.7405 36.39C65.8851 36.52 66.04 36.7103 66.2053 36.961L68.7151 40.9025C68.8597 41.1253 68.9992 41.3714 69.1334 41.6407C69.2677 41.9099 69.3968 42.1931 69.5208 42.4903H69.6602C69.6292 42.2024 69.6034 41.9192 69.5827 41.6407C69.5621 41.3621 69.5517 41.0836 69.5517 40.805L69.5362 36.195H72.2165Z" fill="#0D490D"/>
<path d="M76.9797 36.195V45.805H74.098V36.195H76.9797Z" fill="#0D490D"/>
<path d="M84.1315 36.195V45.805H81.2188V36.195H84.1315ZM87.2146 36.195V38.1866H78.1203V36.195H87.2146Z" fill="#0D490D"/>
<path d="M91.2471 36.195V45.805H88.3654V36.195H91.2471Z" fill="#0D490D"/>
<path d="M98.7087 36.195C98.9462 36.195 99.1528 36.2553 99.3284 36.376C99.5143 36.4968 99.6383 36.6639 99.7002 36.8774L102.628 45.805H99.6538L97.7791 39.1755C97.7378 39.0176 97.7017 38.8505 97.6707 38.6741C97.6397 38.4884 97.6087 38.3166 97.5777 38.1588H97.1594C97.1387 38.3166 97.1078 38.4884 97.0664 38.6741C97.0355 38.8505 96.9993 39.0176 96.958 39.1755L95.0834 45.805H92.1087L95.0369 36.8774C95.0989 36.6639 95.2176 36.4968 95.3932 36.376C95.5791 36.2553 95.7909 36.195 96.0284 36.195H98.7087ZM100.181 41.6407V43.5209H94.5566V41.6407H100.181Z" fill="#0D490D"/>
<path d="M107.87 36.195V45.805H104.957V36.195H107.87ZM110.953 36.195V38.1866H101.859V36.195H110.953Z" fill="#0D490D"/>
<path d="M114.986 36.195V45.805H112.104V36.195H114.986Z" fill="#0D490D"/>
<path d="M126.057 36.195L123.315 45.0947C123.253 45.3083 123.129 45.48 122.943 45.61C122.767 45.74 122.556 45.805 122.308 45.805H119.721C119.462 45.805 119.24 45.74 119.054 45.61C118.879 45.48 118.765 45.3083 118.713 45.0947L115.956 36.195H118.946L120.588 42.7549C120.629 42.9313 120.671 43.1123 120.712 43.298C120.753 43.4838 120.79 43.6648 120.821 43.8412H121.192C121.223 43.6648 121.259 43.4838 121.301 43.298C121.342 43.1123 121.383 42.9313 121.425 42.7549L123.067 36.195H126.057Z" fill="#0D490D"/>
<path d="M129.345 36.1532C129.945 36.1532 130.554 36.1532 131.174 36.1532C131.804 36.1532 132.418 36.1671 133.017 36.195C133.627 36.2136 134.184 36.2507 134.69 36.3064L134.551 38.1727H130.554C130.327 38.1727 130.151 38.2284 130.027 38.3398C129.903 38.442 129.841 38.5859 129.841 38.7716V43.2284C129.841 43.4141 129.903 43.5627 130.027 43.6741C130.151 43.7762 130.327 43.8273 130.554 43.8273H134.551L134.69 45.6936C134.184 45.74 133.627 45.7772 133.017 45.805C132.418 45.8236 131.804 45.8329 131.174 45.8329C130.554 45.8422 129.945 45.8468 129.345 45.8468C128.633 45.8468 128.054 45.6565 127.61 45.2758C127.166 44.8951 126.944 44.3983 126.944 43.7855V38.2145C126.944 37.5924 127.166 37.0956 127.61 36.7242C128.054 36.3435 128.633 36.1532 129.345 36.1532ZM127.223 39.9694H133.993V41.7382H127.223V39.9694Z" fill="#0D490D"/>
<path d="M139.941 36C140.488 36.0093 141.093 36.0418 141.754 36.0975C142.415 36.1532 143.055 36.2693 143.675 36.4457L143.489 38.1448C143.034 38.1356 142.477 38.1263 141.816 38.117C141.165 38.1077 140.524 38.1031 139.894 38.1031C139.657 38.1031 139.455 38.1123 139.29 38.1309C139.135 38.1402 139.006 38.1681 138.903 38.2145C138.81 38.2516 138.743 38.312 138.701 38.3955C138.66 38.4698 138.639 38.5766 138.639 38.7159C138.639 38.9387 138.712 39.1105 138.856 39.2312C139.011 39.3426 139.28 39.4587 139.662 39.5794L141.661 40.2479C142.528 40.5543 143.132 40.935 143.473 41.39C143.824 41.8357 144 42.416 144 43.1309C144 43.6695 143.928 44.1244 143.783 44.4958C143.638 44.8672 143.401 45.1597 143.07 45.3733C142.75 45.5868 142.322 45.7447 141.785 45.8468C141.258 45.9489 140.602 46 139.817 46C139.455 46 138.924 45.9768 138.221 45.9304C137.529 45.8839 136.744 45.7632 135.866 45.5682L136.037 43.7298C136.656 43.7391 137.204 43.753 137.679 43.7716C138.164 43.7809 138.583 43.7902 138.934 43.7994C139.295 43.7994 139.579 43.7994 139.786 43.7994C140.137 43.7994 140.406 43.7855 140.592 43.7577C140.777 43.7205 140.907 43.6602 140.979 43.5766C141.051 43.4838 141.087 43.3538 141.087 43.1866C141.087 43.0288 141.062 42.9034 141.01 42.8106C140.958 42.7177 140.865 42.6388 140.731 42.5738C140.607 42.5088 140.437 42.4438 140.22 42.3788L138.082 41.6128C137.235 41.2971 136.636 40.9211 136.285 40.4847C135.933 40.0483 135.758 39.4773 135.758 38.7716C135.758 38.2145 135.835 37.7595 135.99 37.4067C136.145 37.0539 136.383 36.7753 136.703 36.571C137.033 36.3668 137.467 36.2228 138.004 36.1393C138.541 36.0464 139.187 36 139.941 36Z" fill="#0D490D"/>
<path d="M63 50H202L197.5 56H58L63 50Z" fill="#0D490D"/>
<defs>
<clipPath id="clip0_1585_3784">
<rect width="58" height="55" fill="white" transform="matrix(-1 0 0 1 58 0)"/>
</clipPath>
</defs>
</svg>
