<svg width="201" height="60" viewBox="0 0 201 60" fill="none" xmlns="http://www.w3.org/2000/svg">
<path d="M0 8.43008e-07H57.708V54.17H0V8.43008e-07Z" />
<path d="M57.708 53.9271C39.3014 48.9974 30.6497 30.0711 43.1721 17.7511C55.198 5.91425 43.0618 -9.24866 31.0911 7.2811C23.9288 17.1771 19.5249 47.9313 57.708 53.9271Z" fill="#5876B3"/>
<path d="M24.8193 52.9201C13.5962 52.9019 8.99326 47.7186 7.59955 43.4843C6.15081 39.095 -1.533 41.851 0.273331 46.9521C2.74902 53.924 16.5488 55.1377 24.8193 52.9201Z" fill="#0D490D "/>
<path d="M49.1496 53.9942C35.9422 53.0841 19.8324 45.0663 24.1951 35.2012C28.3832 25.7365 13.4765 19.0566 11.1804 31.3153C9.80272 38.6594 15.9289 56.1055 49.1496 53.9942Z" fill="#F2E157"/>
<path d="M60.7532 4.86544V14.5008H57.708V4.86544H60.7532ZM63.2932 4.86544V6.84838H60.641V4.86544H63.2932ZM66.1841 4.86544V14.5008H63.1389V4.86544H66.1841Z" fill="#0D490D "/>
<path d="M75.9341 4.86544V6.84838H72.51C72.0422 6.84838 71.7943 7.0625 71.7662 7.49075C71.7382 7.90036 71.7008 8.32396 71.6539 8.76151C71.6165 9.19906 71.5697 9.62729 71.5136 10.0462C71.4575 10.4652 71.3919 10.8608 71.3171 11.2332C71.2517 11.6056 71.1767 11.9314 71.0926 12.2107C70.8774 12.9555 70.578 13.5187 70.1945 13.9004C69.8109 14.2727 69.3619 14.5055 68.8473 14.5986C68.3327 14.6917 67.7621 14.6824 67.1352 14.5706L66.9247 12.2247C67.2521 12.1874 67.5328 12.1269 67.7667 12.0431C68.01 11.95 68.1877 11.7359 68.3 11.4008C68.3561 11.2425 68.4076 11.0563 68.4543 10.8422C68.5011 10.6281 68.5432 10.3953 68.5806 10.144C68.6274 9.8833 68.6695 9.60402 68.7069 9.30611C68.7443 8.9989 68.7771 8.67771 68.8052 8.34258C68.8332 8.00743 68.8613 7.65367 68.8893 7.28128C68.9923 5.67072 69.8436 4.86544 71.4434 4.86544H75.9341ZM76.1445 4.86544V14.5008H73.0993V4.86544H76.1445Z" fill="#0D490D "/>
<path d="M83.1185 4.86544C83.3618 4.86544 83.577 4.93527 83.7641 5.07491C83.9512 5.21456 84.0775 5.40541 84.143 5.64745L86.655 14.5008H83.5536L82.0942 8.23086C82.0567 8.05398 82.024 7.87244 81.9959 7.68624C81.9678 7.49075 81.9444 7.30455 81.9257 7.12767H81.5468C81.5281 7.30455 81.5048 7.49075 81.4766 7.68624C81.4486 7.87244 81.4159 8.05398 81.3785 8.23086L79.919 14.5008H76.8176L79.3296 5.64745C79.3951 5.40541 79.5214 5.21456 79.7085 5.07491C79.8955 4.93527 80.1107 4.86544 80.354 4.86544H83.1185ZM84.3114 10.2976V12.4201H79.1612V10.2976H84.3114Z" fill="#0D490D "/>
<path d="M91.6361 4.86544V14.5008H88.5909V4.86544H91.6361ZM94.3446 4.86544V7.12767H85.8825V4.86544H94.3446Z" fill="#0D490D "/>
<path d="M100.632 5.36817C101.736 5.36817 102.667 5.43333 103.425 5.56366C104.183 5.694 104.791 5.91742 105.249 6.23395C105.717 6.55048 106.054 6.97872 106.259 7.51867C106.465 8.05863 106.568 8.73357 106.568 9.54351C106.568 10.3255 106.465 10.9772 106.259 11.4985C106.054 12.0199 105.717 12.4341 105.249 12.7414C104.791 13.0393 104.183 13.2533 103.425 13.3838C102.667 13.5141 101.736 13.5792 100.632 13.5792C99.5281 13.5792 98.5972 13.5141 97.8394 13.3838C97.0817 13.2533 96.4735 13.0393 96.0152 12.7414C95.5567 12.4341 95.2246 12.0199 95.0188 11.4985C94.813 10.9772 94.71 10.3255 94.71 9.54351C94.71 8.73357 94.813 8.05863 95.0188 7.51867C95.2246 6.97872 95.5567 6.55048 96.0152 6.23395C96.4735 5.91742 97.0817 5.694 97.8394 5.56366C98.5972 5.43333 99.5281 5.36817 100.632 5.36817ZM100.632 7.47678C100.005 7.47678 99.5 7.50005 99.1165 7.5466C98.7422 7.59315 98.457 7.6909 98.2605 7.83985C98.064 7.9795 97.9283 8.18897 97.8535 8.46825C97.788 8.73822 97.7553 9.09664 97.7553 9.54351C97.7553 9.96244 97.788 10.3022 97.8535 10.5629C97.9283 10.8143 98.064 11.0051 98.2605 11.1354C98.457 11.2658 98.7422 11.3542 99.1165 11.4008C99.5 11.4473 100.005 11.4706 100.632 11.4706C101.259 11.4706 101.759 11.4473 102.134 11.4008C102.517 11.3542 102.807 11.2658 103.004 11.1354C103.21 11.0051 103.345 10.8143 103.411 10.5629C103.486 10.3022 103.523 9.96244 103.523 9.54351C103.523 9.09664 103.486 8.73822 103.411 8.46825C103.345 8.18897 103.21 7.9795 103.004 7.83985C102.807 7.6909 102.517 7.59315 102.134 7.5466C101.759 7.50005 101.259 7.47678 100.632 7.47678ZM102.162 4.25101V6.54117L102.021 7.07182V11.9035L102.162 12.5738V14.6964H99.1165V12.5738L99.2568 11.9035V7.07182L99.1165 6.54117V4.25101H102.162Z" fill="#0D490D "/>
<path d="M111.883 4.66994C112.716 4.66994 113.417 4.74907 113.988 4.90733C114.568 5.05629 115.036 5.31696 115.391 5.68934C115.747 6.06173 116.004 6.57375 116.163 7.22542C116.322 7.86779 116.402 8.68703 116.402 9.68315C116.402 10.67 116.322 11.4892 116.163 12.1409C116.004 12.7925 115.747 13.3046 115.391 13.677C115.036 14.0494 114.568 14.3146 113.988 14.4729C113.417 14.6219 112.716 14.6964 111.883 14.6964C111.06 14.6964 110.358 14.6219 109.778 14.4729C109.207 14.3146 108.744 14.0494 108.389 13.677C108.033 13.3046 107.776 12.7925 107.617 12.1409C107.458 11.4892 107.378 10.67 107.378 9.68315C107.378 8.68703 107.458 7.86779 107.617 7.22542C107.776 6.57375 108.033 6.06173 108.389 5.68934C108.744 5.31696 109.207 5.05629 109.778 4.90733C110.358 4.74907 111.06 4.66994 111.883 4.66994ZM111.883 6.91821C111.537 6.91821 111.27 6.99268 111.083 7.14164C110.896 7.29058 110.765 7.56522 110.69 7.96553C110.615 8.36585 110.578 8.93839 110.578 9.68315C110.578 10.4279 110.615 11.0005 110.69 11.4008C110.765 11.8011 110.896 12.0757 111.083 12.2247C111.27 12.3736 111.537 12.4481 111.883 12.4481C112.229 12.4481 112.496 12.3736 112.683 12.2247C112.87 12.0757 113.001 11.8011 113.076 11.4008C113.151 11.0005 113.188 10.4279 113.188 9.68315C113.188 8.93839 113.151 8.36585 113.076 7.96553C113.001 7.56522 112.87 7.29058 112.683 7.14164C112.496 6.99268 112.229 6.91821 111.883 6.91821Z" fill="#0D490D "/>
<path d="M121.735 4.7258C122.764 4.7258 123.569 4.82355 124.148 5.01905C124.729 5.20524 125.14 5.53573 125.383 6.01052C125.626 6.48531 125.748 7.15094 125.748 8.00743C125.748 8.8546 125.631 9.51558 125.398 9.99037C125.173 10.4559 124.799 10.7863 124.275 10.9818C123.751 11.168 123.044 11.2611 122.156 11.2611C121.688 11.2611 121.22 11.2379 120.752 11.1913C120.285 11.1354 119.845 11.0703 119.433 10.9958C119.031 10.912 118.685 10.8282 118.395 10.7444C118.105 10.6513 117.903 10.5676 117.791 10.4931L117.833 9.12458C118.441 9.12458 119.073 9.12458 119.728 9.12458C120.383 9.12458 121.028 9.12458 121.664 9.12458C121.945 9.12458 122.16 9.09664 122.31 9.04079C122.46 8.97562 122.562 8.86391 122.619 8.70565C122.675 8.53807 122.703 8.30534 122.703 8.00743C122.703 7.70021 122.675 7.46281 122.619 7.29525C122.562 7.12767 122.46 7.01596 122.31 6.9601C122.16 6.89494 121.945 6.86235 121.664 6.86235C120.71 6.86235 119.896 6.867 119.223 6.87632C118.549 6.88562 118.091 6.90424 117.847 6.93218L117.637 4.86544C118.067 4.8189 118.47 4.78631 118.844 4.76769C119.227 4.74907 119.644 4.73977 120.093 4.73977C120.542 4.73045 121.089 4.7258 121.735 4.7258ZM120.682 4.86544V14.5008H117.637V4.86544H120.682Z" fill="#0D490D "/>
<path d="M137.429 4.86544C138.112 4.86544 138.467 5.21456 138.496 5.91277L138.833 14.5008H136.096L135.801 7.12767H135.591L134.637 12.0431C134.543 12.6576 134.16 12.9647 133.486 12.9647H131.914C131.25 12.9647 130.862 12.6576 130.749 12.0431L129.781 7.12767H129.57L129.332 14.5008H126.596L126.932 5.91277C126.96 5.21456 127.316 4.86544 127.999 4.86544H130.623C131.278 4.86544 131.661 5.17732 131.774 5.80105L132.475 9.62729C132.513 9.86003 132.541 10.0974 132.56 10.3395C132.588 10.5815 132.611 10.8236 132.629 11.0656H132.757C132.785 10.8236 132.808 10.5815 132.826 10.3395C132.854 10.0974 132.887 9.86003 132.924 9.62729L133.584 5.80105C133.697 5.17732 134.084 4.86544 134.749 4.86544H137.429Z" fill="#0D490D "/>
<path d="M145.625 4.86544C145.868 4.86544 146.083 4.93527 146.27 5.07491C146.457 5.21456 146.583 5.40541 146.648 5.64745L149.161 14.5008H146.059L144.6 8.23086C144.562 8.05398 144.529 7.87244 144.501 7.68624C144.473 7.49075 144.45 7.30455 144.431 7.12767H144.052C144.034 7.30455 144.011 7.49075 143.983 7.68624C143.955 7.87244 143.922 8.05398 143.884 8.23086L142.425 14.5008H139.323L141.836 5.64745C141.901 5.40541 142.027 5.21456 142.214 5.07491C142.401 4.93527 142.616 4.86544 142.859 4.86544H145.625ZM146.817 10.2976V12.4201H141.667V10.2976H146.817Z" fill="#0D490D "/>
<path d="M59.9808 21.5152C60.5418 21.5152 61.1171 21.5198 61.7063 21.5291C62.3049 21.5291 62.8894 21.5429 63.4599 21.5707C64.0304 21.5892 64.5495 21.6308 65.0171 21.6956L64.8768 23.8178H61.3275C61.1497 23.8178 61.0095 23.8641 60.9067 23.9565C60.8037 24.0491 60.7522 24.1693 60.7522 24.3172V28.3953C60.7522 28.5434 60.8037 28.6635 60.9067 28.756C61.0095 28.8485 61.1497 28.8947 61.3275 28.8947H64.8768L65.0171 31.017C64.5495 31.0725 64.0304 31.1141 63.4599 31.1418C62.8894 31.1696 62.3049 31.1835 61.7063 31.1835C61.1171 31.1927 60.5418 31.1973 59.9808 31.1973C59.3166 31.1973 58.7695 30.9985 58.3393 30.6008C57.9184 30.194 57.708 29.6668 57.708 29.0196V23.693C57.708 23.0457 57.9184 22.5232 58.3393 22.1255C58.7695 21.7187 59.3166 21.5152 59.9808 21.5152ZM57.9605 25.2466H64.3717V27.244H57.9605V25.2466Z" fill="#0D490D "/>
<path d="M74.608 21.5707C74.3836 22.3105 74.1965 22.9347 74.0469 23.4434C73.9066 23.9427 73.771 24.3542 73.6401 24.6779C73.5091 25.0015 73.3595 25.2605 73.1911 25.4547C73.0321 25.6396 72.8263 25.7829 72.5738 25.8847C72.3214 25.9771 71.9939 26.0511 71.5918 26.1066V26.1899C72.0034 26.2545 72.3401 26.3332 72.602 26.4256C72.8731 26.5181 73.1023 26.6615 73.2893 26.8556C73.4764 27.0498 73.6447 27.3226 73.7944 27.6741C73.944 28.0255 74.103 28.4832 74.2713 29.0473C74.4397 29.6021 74.6455 30.3004 74.8886 31.1418H71.7181C71.4655 30.2264 71.2645 29.5004 71.1149 28.9641C70.9652 28.4277 70.8202 28.0301 70.68 27.7711C70.549 27.5122 70.39 27.3458 70.2029 27.2718C70.0159 27.1885 69.768 27.147 69.4594 27.147L69.4174 25.205C69.7354 25.205 69.9879 25.1587 70.1749 25.0663C70.3713 24.9645 70.535 24.7843 70.6659 24.5253C70.7969 24.2664 70.9232 23.9011 71.0447 23.4295C71.1756 22.9485 71.3346 22.329 71.5216 21.5707H74.608ZM69.249 21.5707V23.9843C69.249 24.3357 69.2116 24.7009 69.1368 25.0801C69.0713 25.4501 68.9638 25.7968 68.8141 26.1204C68.9264 26.4164 69.0246 26.7401 69.1087 27.0915C69.2022 27.4336 69.249 27.7434 69.249 28.0209V31.1418H66.2047V21.5707H69.249ZM70.1468 25.205V27.147H68.5195V25.205H70.1468Z" fill="#0D490D "/>
<path d="M79.7692 21.3765C80.6016 21.3765 81.303 21.4551 81.8736 21.6124C82.4534 21.7603 82.9211 22.0193 83.2765 22.3891C83.6319 22.7591 83.889 23.2676 84.0481 23.915C84.207 24.553 84.2866 25.3668 84.2866 26.3563C84.2866 27.3366 84.207 28.1503 84.0481 28.7976C83.889 29.4449 83.6319 29.9535 83.2765 30.3234C82.9211 30.6933 82.4534 30.9568 81.8736 31.1141C81.303 31.2621 80.6016 31.336 79.7692 31.336C78.9462 31.336 78.2448 31.2621 77.6649 31.1141C77.0944 30.9568 76.6315 30.6933 76.2761 30.3234C75.9207 29.9535 75.6634 29.4449 75.5045 28.7976C75.3454 28.1503 75.2659 27.3366 75.2659 26.3563C75.2659 25.3668 75.3454 24.553 75.5045 23.915C75.6634 23.2676 75.9207 22.7591 76.2761 22.3891C76.6315 22.0193 77.0944 21.7603 77.6649 21.6124C78.2448 21.4551 78.9462 21.3765 79.7692 21.3765ZM79.7692 23.6098C79.4232 23.6098 79.1566 23.6837 78.9697 23.8317C78.7826 23.9797 78.6516 24.2525 78.5768 24.6502C78.502 25.0478 78.4646 25.6165 78.4646 26.3563C78.4646 27.0961 78.502 27.6647 78.5768 28.0624C78.6516 28.46 78.7826 28.7328 78.9697 28.8809C79.1566 29.0288 79.4232 29.1028 79.7692 29.1028C80.1152 29.1028 80.3818 29.0288 80.5688 28.8809C80.7559 28.7328 80.8868 28.46 80.9617 28.0624C81.0365 27.6647 81.0739 27.0961 81.0739 26.3563C81.0739 25.6165 81.0365 25.0478 80.9617 24.6502C80.8868 24.2525 80.7559 23.9797 80.5688 23.8317C80.3818 23.6837 80.1152 23.6098 79.7692 23.6098Z" fill="#0D490D "/>
<path d="M89.4356 26.7309V28.4231H85.3532V26.7309H89.4356Z" fill="#0D490D"/>
<path d="M93.0117 21.5152C93.5728 21.5152 94.148 21.5198 94.7373 21.5291C95.3357 21.5291 95.9203 21.5429 96.4908 21.5707C97.0614 21.5892 97.5804 21.6308 98.048 21.6956L97.9078 23.8178H94.3584C94.1807 23.8178 94.0405 23.8641 93.9375 23.9565C93.8347 24.0491 93.7832 24.1693 93.7832 24.3172V28.3953C93.7832 28.5434 93.8347 28.6635 93.9375 28.756C94.0405 28.8485 94.1807 28.8947 94.3584 28.8947H97.9078L98.048 31.017C97.5804 31.0725 97.0614 31.1141 96.4908 31.1418C95.9203 31.1696 95.3357 31.1835 94.7373 31.1835C94.148 31.1927 93.5728 31.1973 93.0117 31.1973C92.3476 31.1973 91.8005 30.9985 91.3703 30.6008C90.9494 30.194 90.739 29.6668 90.739 29.0196V23.693C90.739 23.0457 90.9494 22.5232 91.3703 22.1255C91.8005 21.7187 92.3476 21.5152 93.0117 21.5152ZM90.9915 25.2466H97.4027V27.244H90.9915V25.2466Z" fill="#0D490D "/>
<path d="M102.28 21.5707V31.1418H99.2357V21.5707H102.28ZM104.875 25.0108V27.1192H102.168V25.0108H104.875ZM107.765 21.5707V31.1418H104.721V21.5707H107.765Z" fill="#0D490D "/>
<path d="M111.521 21.5152C112.082 21.5152 112.657 21.5198 113.246 21.5291C113.845 21.5291 114.429 21.5429 115 21.5707C115.57 21.5892 116.089 21.6308 116.557 21.6956L116.417 23.8178H112.867C112.69 23.8178 112.549 23.8641 112.446 23.9565C112.343 24.0491 112.292 24.1693 112.292 24.3172V28.3953C112.292 28.5434 112.343 28.6635 112.446 28.756C112.549 28.8485 112.69 28.8947 112.867 28.8947H116.417L116.557 31.017C116.089 31.0725 115.57 31.1141 115 31.1418C114.429 31.1696 113.845 31.1835 113.246 31.1835C112.657 31.1927 112.082 31.1973 111.521 31.1973C110.857 31.1973 110.309 30.9985 109.879 30.6008C109.458 30.194 109.248 29.6668 109.248 29.0196V23.693C109.248 23.0457 109.458 22.5232 109.879 22.1255C110.309 21.7187 110.857 21.5152 111.521 21.5152ZM109.5 25.2466H115.912V27.244H109.5V25.2466Z" fill="#0D490D "/>
<path d="M121.827 21.432C122.856 21.432 123.66 21.5291 124.24 21.7233C124.819 21.9083 125.231 22.2366 125.475 22.7082C125.718 23.1798 125.839 23.841 125.839 24.6917C125.839 25.5333 125.723 26.1899 125.488 26.6615C125.264 27.1238 124.89 27.4521 124.366 27.6463C123.842 27.8313 123.136 27.9237 122.248 27.9237C121.78 27.9237 121.313 27.9006 120.845 27.8543C120.377 27.7988 119.938 27.7341 119.526 27.6601C119.124 27.5769 118.778 27.4937 118.488 27.4105C118.198 27.318 117.997 27.2348 117.885 27.1608L117.927 25.8015C118.535 25.8015 119.166 25.8015 119.821 25.8015C120.475 25.8015 121.121 25.8015 121.757 25.8015C122.037 25.8015 122.252 25.7736 122.402 25.7183C122.551 25.6535 122.654 25.5425 122.71 25.3853C122.766 25.2188 122.795 24.9877 122.795 24.6917C122.795 24.3866 122.766 24.1507 122.71 23.9843C122.654 23.8178 122.551 23.7069 122.402 23.6514C122.252 23.5867 122.037 23.5543 121.757 23.5543C120.803 23.5543 119.989 23.5589 119.316 23.5682C118.642 23.5774 118.184 23.5959 117.941 23.6236L117.73 21.5707C118.161 21.5245 118.563 21.4921 118.937 21.4736C119.32 21.4551 119.737 21.4459 120.186 21.4459C120.634 21.4366 121.182 21.432 121.827 21.432ZM120.775 21.5707V31.1418H117.73V21.5707H120.775Z" fill="#0D490D "/>
<path d="M129.085 21.5152C129.88 21.5152 130.699 21.5245 131.54 21.5429C132.382 21.5523 133.131 21.6077 133.785 21.7094L133.644 23.8178H130.46C130.282 23.8178 130.138 23.8641 130.025 23.9565C129.923 24.0491 129.871 24.1693 129.871 24.3172V31.1418H126.827V23.693C126.827 23.0457 127.037 22.5232 127.458 22.1255C127.888 21.7187 128.431 21.5152 129.085 21.5152Z" fill="#0D490D "/>
<path d="M136.797 21.5152C137.359 21.5152 137.933 21.5198 138.522 21.5291C139.122 21.5291 139.706 21.5429 140.276 21.5707C140.847 21.5892 141.366 21.6308 141.833 21.6956L141.693 23.8178H138.143C137.966 23.8178 137.826 23.8641 137.723 23.9565C137.62 24.0491 137.569 24.1693 137.569 24.3172V28.3953C137.569 28.5434 137.62 28.6635 137.723 28.756C137.826 28.8485 137.966 28.8947 138.143 28.8947H141.693L141.833 31.017C141.366 31.0725 140.847 31.1141 140.276 31.1418C139.706 31.1696 139.122 31.1835 138.522 31.1835C137.933 31.1927 137.359 31.1973 136.797 31.1973C136.133 31.1973 135.586 30.9985 135.155 30.6008C134.735 30.194 134.525 29.6668 134.525 29.0196V23.693C134.525 23.0457 134.735 22.5232 135.155 22.1255C135.586 21.7187 136.133 21.5152 136.797 21.5152ZM134.778 25.2466H141.188V27.244H134.778V25.2466Z" fill="#0D490D "/>
<path d="M148.114 21.5707V31.1418H145.07V21.5707H148.114ZM150.821 21.5707V23.8178H142.362V21.5707H150.821Z" fill="#0D490D "/>
<path d="M160.46 21.5707V31.1418H157.57V26.7447C157.57 26.495 157.583 26.2499 157.611 26.0095C157.649 25.7598 157.687 25.5101 157.724 25.2605H157.626C157.551 25.5194 157.467 25.769 157.373 26.0095C157.28 26.2499 157.168 26.4904 157.037 26.7309L154.666 31.1418H151.762V21.5707H154.651V25.8153C154.651 26.0464 154.638 26.2962 154.61 26.5643C154.582 26.8325 154.544 27.1007 154.497 27.3689H154.595C154.68 27.1099 154.774 26.8556 154.876 26.606C154.979 26.3563 155.092 26.1204 155.213 25.8985L157.57 21.5707H160.46Z" fill="#0D490D"/>
<path d="M164.8 21.5707V24.9969C164.8 25.2466 164.852 25.4269 164.954 25.5379C165.057 25.6396 165.282 25.6904 165.628 25.6904C165.777 25.6904 165.936 25.6858 166.105 25.6766C166.272 25.6674 166.46 25.6442 166.666 25.6072C166.881 25.5702 167.12 25.5101 167.381 25.4269L167.704 27.244C167.367 27.429 167.002 27.5908 166.61 27.7295C166.226 27.8682 165.852 27.9746 165.488 28.0485C165.123 28.1133 164.796 28.1457 164.506 28.1457C163.561 28.1457 162.864 27.9469 162.415 27.5492C161.975 27.1423 161.756 26.5088 161.756 25.6488V21.5707H164.8ZM170.201 21.5707V31.1418H167.156V21.5707H170.201Z" fill="#0D490D "/>
<path d="M174.849 21.5707V31.1418H171.805V21.5707H174.849ZM177.445 25.0108V27.1192H174.737V25.0108H177.445ZM180.335 21.5707V31.1418H177.291V21.5707H180.335Z" fill="#0D490D "/>
<path d="M190.627 21.5707V31.1418H187.737V26.7447C187.737 26.495 187.752 26.2499 187.78 26.0095C187.816 25.7598 187.854 25.5101 187.892 25.2605H187.793C187.719 25.5194 187.634 25.769 187.541 26.0095C187.447 26.2499 187.335 26.4904 187.204 26.7309L184.833 31.1418H181.929V21.5707H184.82V25.8153C184.82 26.0464 184.805 26.2962 184.777 26.5643C184.749 26.8325 184.712 27.1007 184.666 27.3689H184.764C184.848 27.1099 184.941 26.8556 185.043 26.606C185.146 26.3563 185.259 26.1204 185.381 25.8985L187.737 21.5707H190.627Z" fill="#0D490D"/>
<path d="M200.803 21.5707L198.601 26.2592L201 31.1418H197.984L195.795 26.2592L197.802 21.5707H200.803ZM194.56 21.5707L196.567 26.2592L194.378 31.1418H191.362L193.761 26.2592L191.559 21.5707H194.56ZM197.52 25.3992V27.0638H194.603V25.3992H197.52Z" fill="#0D490D "/>
<path d="M60.7263 38.1283V47.802H57.708V38.1283H60.7263Z" fill="#0D490D"/>
<path d="M65.3745 38.1283V47.802H62.3281V38.1283H65.3745ZM67.9716 41.6053V43.7362H65.2622V41.6053H67.9716ZM70.8635 38.1283V47.802H67.8172V38.1283H70.8635Z" fill="#0D490D "/>
<path d="M75.4777 38.1283V47.802H72.4594V38.1283H75.4777Z" fill="#0D490D"/>
<path d="M77.0795 47.802V38.1283H80.1259V47.802H77.0795ZM80.0135 47.802V45.8112H86.401V47.802H80.0135ZM82.2879 47.802V38.1283H85.3342V47.802H82.2879ZM84.197 49.919L83.9724 47.7039H86.401V49.919H84.197Z" fill="#0D490D "/>
<path d="M90.4073 38.1283V47.802H87.389V38.1283H90.4073Z" fill="#0D490D"/>
<path d="M97.3858 38.1283C97.6293 38.1283 97.8444 38.1985 98.0316 38.3387C98.2188 38.4788 98.3452 38.6705 98.4107 38.9135L100.924 47.802H97.8211L96.361 41.5071C96.3236 41.3296 96.2909 41.1472 96.2629 40.9603C96.2347 40.764 96.2114 40.5771 96.1926 40.3996H95.8135C95.7948 40.5771 95.7715 40.764 95.7434 40.9603C95.7152 41.1472 95.6826 41.3296 95.6451 41.5071L94.1851 47.802H91.0826L93.5955 38.9135C93.661 38.6705 93.7874 38.4788 93.9745 38.3387C94.1617 38.1985 94.377 38.1283 94.6203 38.1283H97.3858ZM98.5791 43.5821V45.7131H93.427V43.5821H98.5791Z" fill="#0D490D"/>
<path d="M105.907 38.1283V47.802H102.86V38.1283H105.907ZM108.616 38.1283V40.3996H100.151V38.1283H108.616Z" fill="#0D490D "/>
<path d="M118.261 38.1283V47.802H115.369V43.3578C115.369 43.1054 115.383 42.8577 115.411 42.6147C115.449 42.3623 115.486 42.11 115.524 41.8577H115.425C115.351 42.1193 115.266 42.3717 115.173 42.6147C115.079 42.8577 114.967 43.1008 114.836 43.3437L112.463 47.802H109.557V38.1283H112.449V42.4184C112.449 42.6521 112.435 42.9045 112.407 43.1755C112.379 43.4466 112.342 43.7175 112.295 43.9886H112.393C112.477 43.7269 112.571 43.4699 112.674 43.2175C112.777 42.9652 112.889 42.7268 113.011 42.5026L115.369 38.1283H118.261Z" fill="#0D490D"/>
<path d="M124.037 38.0162C124.934 38.0162 125.651 38.091 126.184 38.2405C126.718 38.3807 127.101 38.6331 127.335 38.9976C127.569 39.3621 127.686 39.8762 127.686 40.5397C127.686 41.2314 127.551 41.7595 127.279 42.124C127.008 42.4792 126.554 42.6848 125.917 42.7409V42.8249C126.694 42.8904 127.236 43.1428 127.546 43.5821C127.855 44.0121 128.009 44.6149 128.009 45.3906C128.009 46.0543 127.883 46.5683 127.63 46.9328C127.387 47.2974 127.008 47.5544 126.493 47.7039C125.978 47.844 125.313 47.9143 124.499 47.9143C123.807 47.9143 123.194 47.9095 122.66 47.9002C122.136 47.9002 121.65 47.8908 121.2 47.8721C120.761 47.8534 120.311 47.8301 119.853 47.802L120.077 45.8112C120.321 45.8206 120.793 45.8299 121.495 45.8393C122.197 45.8486 123.016 45.8532 123.952 45.8532C124.232 45.8532 124.448 45.8252 124.598 45.7692C124.747 45.7131 124.846 45.6056 124.893 45.4467C124.949 45.2879 124.977 45.0635 124.977 44.7737C124.977 44.4747 124.949 44.2456 124.893 44.0868C124.836 43.9279 124.734 43.8204 124.583 43.7643C124.444 43.7083 124.228 43.6802 123.938 43.6802H120.063V41.8997H123.91C124.144 41.8997 124.322 41.8764 124.444 41.8296C124.575 41.7828 124.663 41.6941 124.71 41.5632C124.757 41.423 124.78 41.2267 124.78 40.9744C124.78 40.722 124.757 40.5351 124.71 40.4137C124.663 40.2827 124.575 40.1939 124.444 40.1472C124.312 40.1005 124.125 40.0771 123.882 40.0771C123.292 40.0771 122.777 40.0771 122.337 40.0771C121.898 40.0677 121.5 40.0677 121.144 40.0771C120.789 40.0771 120.433 40.0912 120.077 40.1191L119.853 38.1283C120.274 38.091 120.686 38.0676 121.088 38.0582C121.491 38.0395 121.926 38.0302 122.394 38.0302C122.872 38.0208 123.418 38.0162 124.037 38.0162ZM122.829 38.1283V47.802H119.853V38.1283H122.829Z" fill="#0D490D "/>
<path d="M201 54.1994C199.528 56.0705 198.187 57.7156 196.931 59.3966C196.323 60.2102 195.348 59.9649 194.482 59.9665C176.149 59.9798 157.816 59.9784 139.483 59.9798C113.16 59.9814 86.8384 59.9814 60.5148 59.9829C59.4697 59.9829 58.4225 59.9829 56.9745 59.9829C58.698 58.0521 60.2252 56.3726 61.7037 54.6706C62.3112 53.9692 63.2187 54.21 64.0186 54.21C82.6378 54.1965 101.255 54.1965 119.874 54.1965C146.054 54.1965 172.234 54.1994 198.414 54.201C199.169 54.1994 199.924 54.1994 201 54.1994Z" fill="#0D490D"/>
</svg>
