<svg width="21" height="18" viewBox="0 0 21 18" fill="none" xmlns="http://www.w3.org/2000/svg">
<path fill-rule="evenodd" clip-rule="evenodd" d="M4.75 0.25C2.12665 0.25 0 2.37665 0 5V13C0 15.6234 2.12665 17.75 4.75 17.75H12C14.6234 17.75 16.75 15.6234 16.75 13C16.75 12.5858 16.4142 12.25 16 12.25C15.5858 12.25 15.25 12.5858 15.25 13C15.25 14.7949 13.7949 16.25 12 16.25H7.46412C8.26157 15.4003 8.75 14.2572 8.75 13V5C8.75 3.74279 8.26157 2.59965 7.46412 1.75H12C13.7949 1.75 15.25 3.20507 15.25 5C15.25 5.41421 15.5858 5.75 16 5.75C16.4142 5.75 16.75 5.41421 16.75 5C16.75 2.37665 14.6234 0.25 12 0.25H4.75ZM17.1464 11.5303C16.8536 11.2374 16.8536 10.7626 17.1464 10.4697L17.8661 9.75H11.75C11.3358 9.75 11 9.41421 11 9C11 8.58579 11.3358 8.25 11.75 8.25H17.8661L17.1464 7.53033C16.8536 7.23744 16.8536 6.76256 17.1464 6.46967C17.4393 6.17678 17.9142 6.17678 18.2071 6.46967L19.5 7.76256C20.1834 8.44598 20.1834 9.55402 19.5 10.2374L18.2071 11.5303C17.9142 11.8232 17.4393 11.8232 17.1464 11.5303Z" fill="#0d490d"/>
</svg>
