<svg width="24" height="24" viewBox="0 0 24 24" fill="none" xmlns="http://www.w3.org/2000/svg">
<path fill-rule="evenodd" clip-rule="evenodd" d="M2.99996 1.46732e-10H7.11994C7.9179 -7.88103e-06 8.68299 0.317892 9.24598 0.883388C9.80897 1.44888 10.1235 2.21538 10.1199 3.01333V7.12C10.1199 8.77685 8.77679 10.12 7.11994 10.12H2.99996C1.34311 10.12 -3.13634e-05 8.77685 -3.13634e-05 7.12V3.01333C-0.00357786 2.21538 0.310925 1.44888 0.873917 0.883388C1.43691 0.317892 2.202 -7.88103e-06 2.99996 1.46732e-10ZM7.11994 8.10667C7.66922 8.09949 8.11276 7.65595 8.11994 7.10667V3.01333C8.11994 2.46105 7.67222 2.01333 7.11994 2.01333H2.99996C2.44767 2.01333 1.99996 2.46105 1.99996 3.01333V7.10667C2.00714 7.65595 2.45068 8.09949 2.99996 8.10667H7.11994Z" fill="#0D490D"/>
<path fill-rule="evenodd" clip-rule="evenodd" d="M16.8799 1.46732e-10H20.9999C21.7979 -7.88103e-06 22.563 0.317892 23.126 0.883388C23.689 1.44888 24.0035 2.21538 23.9999 3.01333V7.12C23.9999 8.77685 22.6568 10.12 20.9999 10.12H16.8799C15.2231 10.12 13.8799 8.77685 13.8799 7.12V3C13.8799 1.34315 15.2231 1.46732e-10 16.8799 1.46732e-10ZM20.9999 8.10667C21.5492 8.09949 21.9927 7.65595 21.9999 7.10667V3.01333C21.9999 2.46105 21.5522 2.01333 20.9999 2.01333H16.8799C16.3277 2.01333 15.8799 2.46105 15.8799 3.01333V7.10667C15.8871 7.65595 16.3307 8.09949 16.8799 8.10667H20.9999Z" fill="#0D490D"/>
<path fill-rule="evenodd" clip-rule="evenodd" d="M2.99996 13.88H7.11994C8.77679 13.88 10.1199 15.2231 10.1199 16.88V21C10.1199 22.6569 8.77679 24 7.11994 24H2.99996C2.202 24 1.43691 23.6821 0.873917 23.1166C0.310925 22.5511 -0.00357786 21.7846 -3.13634e-05 20.9867V16.88C-3.13634e-05 15.2231 1.34311 13.88 2.99996 13.88ZM7.11994 21.9867C7.67222 21.9867 8.11994 21.539 8.11994 20.9867V16.88C8.11276 16.3307 7.66922 15.8872 7.11994 15.88H2.99996C2.45068 15.8872 2.00714 16.3307 1.99996 16.88V20.9867C1.99996 21.539 2.44767 21.9867 2.99996 21.9867H7.11994Z" fill="#0D490D"/>
<path fill-rule="evenodd" clip-rule="evenodd" d="M16.8799 13.88H20.9999C22.6567 13.88 23.9999 15.2231 23.9999 16.88V20.9867C24.0034 21.7846 23.6889 22.5511 23.1259 23.1166C22.5629 23.6821 21.7979 24 20.9999 24H16.8799C16.0819 24 15.3169 23.6821 14.7539 23.1166C14.1909 22.5511 13.8764 21.7846 13.8799 20.9867V16.88C13.8799 15.2231 15.2231 13.88 16.8799 13.88ZM20.9999 21.9867C21.5522 21.9867 21.9999 21.539 21.9999 20.9867V16.88C21.9927 16.3307 21.5492 15.8872 20.9999 15.88H16.8799C16.3306 15.8872 15.8871 16.3307 15.8799 16.88V20.9867C15.8799 21.539 16.3276 21.9867 16.8799 21.9867H20.9999Z" fill="#0D490D"/>
</svg>
