<svg width="48" height="49" viewBox="0 0 48 49" fill="none" xmlns="http://www.w3.org/2000/svg">
<path d="M38 27C38.8284 27 39.5 26.3284 39.5 25.5C39.5 24.6716 38.8284 24 38 24V27ZM10 24C9.17158 24 8.5 24.6716 8.5 25.5C8.5 26.3284 9.17158 27 10 27V24ZM38 35C38.8284 35 39.5 34.3284 39.5 33.5C39.5 32.6716 38.8284 32 38 32L38 35ZM19.334 32C18.5056 32 17.834 32.6716 17.834 33.5C17.834 34.3284 18.5056 35 19.334 35V32ZM38 19C38.8284 19 39.5 18.3284 39.5 17.5C39.5 16.6716 38.8284 16 38 16L38 19ZM19.334 16C18.5056 16 17.834 16.6716 17.834 17.5C17.834 18.3284 18.5056 19 19.334 19L19.334 16ZM38 24L10 24V27L38 27V24ZM38 32H19.334V35H38L38 32ZM38 16L19.334 16L19.334 19H38L38 16Z" fill="#0D490D"/>
</svg>
