<svg width="531" height="215" viewBox="0 0 531 215" fill="none" xmlns="http://www.w3.org/2000/svg">
<path d="M89.6142 3.90362L33.1856 125.817C31.3847 129.621 31.2846 132.623 32.8854 134.825C34.6864 136.827 37.1876 137.828 40.3893 137.828H162.551V158.247L135.237 161.25H22.3801C16.7773 161.25 11.9748 159.649 7.9728 156.446C4.17087 153.243 1.6696 149.139 0.468988 144.134C-0.53152 139.129 0.0687847 134.125 2.2699 129.12L60.1993 3.90362H89.6142ZM136.138 43.5405V211.096H107.924V77.7723L113.026 43.5405H136.138Z" fill="#2D5D37"/>
<path d="M266.146 0C284.355 0 298.763 3.70345 309.368 11.1103C319.973 18.317 327.577 29.8277 332.18 45.6425C336.782 61.4572 339.083 82.0763 339.083 107.5C339.083 132.924 336.782 153.543 332.18 169.358C327.577 185.172 319.973 196.783 309.368 204.19C298.763 211.397 284.355 215 266.146 215C248.137 215 233.73 211.397 222.924 204.19C212.319 196.783 204.715 185.172 200.113 169.358C195.51 153.543 193.209 132.924 193.209 107.5C193.209 82.0763 195.51 61.4572 200.113 45.6425C204.715 29.8277 212.319 18.317 222.924 11.1103C233.73 3.70345 248.137 0 266.146 0ZM265.846 25.5237C257.642 25.5237 250.738 27.0251 245.135 30.0279C239.733 32.8305 235.33 37.4348 231.929 43.8408C228.727 50.2467 226.326 58.6546 224.725 69.0642C223.324 79.4739 222.624 92.2858 222.624 107.5C222.624 122.514 223.324 135.326 224.725 145.936C226.326 156.345 228.727 164.753 231.929 171.159C235.33 177.565 239.733 182.27 245.135 185.272C250.738 188.075 257.642 189.476 265.846 189.476C274.25 189.476 281.254 188.075 286.857 185.272C292.459 182.27 296.962 177.565 300.363 171.159C303.765 164.753 306.166 156.345 307.567 145.936C308.968 135.326 309.668 122.514 309.668 107.5C309.668 92.2858 308.968 79.4739 307.567 69.0642C306.166 58.6546 303.765 50.2467 300.363 43.8408C296.962 37.4348 292.459 32.8305 286.857 30.0279C281.254 27.0251 274.25 25.5237 265.846 25.5237Z" fill="#2D5D37"/>
<path d="M458.063 3.90362L401.634 125.817C399.833 129.621 399.733 132.623 401.334 134.825C403.135 136.827 405.636 137.828 408.838 137.828H531V158.247L503.686 161.25H390.829C385.226 161.25 380.424 159.649 376.422 156.446C372.62 153.243 370.118 149.139 368.918 144.134C367.917 139.129 368.518 134.125 370.719 129.12L428.648 3.90362H458.063ZM504.587 43.5405V211.096H476.372V77.7723L481.475 43.5405H504.587Z" fill="#2D5D37"/>
<path d="M265.88 57C265.88 57 207.18 149.798 257.154 159V134.715C257.154 133.81 256.411 133.068 255.506 133.068H252.94C252.035 133.068 251.62 132.402 252.019 131.59L265.533 104.033C265.931 103.218 266.582 103.218 266.983 104.033L280.496 131.59C280.895 132.402 280.48 133.068 279.573 133.068H277.009C276.104 133.068 275.361 133.81 275.361 134.715V158.721C319.979 148.075 265.88 57 265.88 57Z" fill="#0D490D"/>
<path d="M265.88 57C265.88 57 265.813 57.1082 265.686 57.3111V103.775C266.084 103.23 266.631 103.316 266.983 104.033L280.496 131.59C280.895 132.402 280.48 133.068 279.573 133.068H277.009C276.104 133.068 275.361 133.81 275.361 134.715V158.721C319.979 148.075 265.88 57 265.88 57Z" fill="#10880D"/>
</svg>
