<svg width="24" height="25" viewBox="0 0 24 25" fill="none" xmlns="http://www.w3.org/2000/svg">
<path d="M12 0.5C8.7435 0.5 8.334 0.515 7.0545 0.572C5.775 0.632 4.9035 0.833 4.14 1.13C3.33877 1.43049 2.61321 1.9031 2.0145 2.5145C1.4031 3.11321 0.930488 3.83877 0.63 4.64C0.333 5.402 0.1305 6.275 0.072 7.55C0.015 8.8325 0 9.2405 0 12.5015C0 15.7595 0.015 16.1675 0.072 17.447C0.132 18.725 0.333 19.5965 0.63 20.36C0.9375 21.149 1.347 21.818 2.0145 22.4855C2.6805 23.153 3.3495 23.564 4.1385 23.87C4.9035 24.167 5.7735 24.3695 7.0515 24.428C8.3325 24.485 8.7405 24.5 12 24.5C15.2595 24.5 15.666 24.485 16.947 24.428C18.2235 24.368 19.098 24.167 19.8615 23.87C20.6622 23.5693 21.3872 23.0967 21.9855 22.4855C22.653 21.818 23.0625 21.149 23.37 20.36C23.6655 19.5965 23.868 18.725 23.928 17.447C23.985 16.1675 24 15.7595 24 12.5C24 9.2405 23.985 8.8325 23.928 7.5515C23.868 6.275 23.6655 5.402 23.37 4.64C23.0695 3.83877 22.5969 3.11321 21.9855 2.5145C21.3868 1.9031 20.6612 1.43049 19.86 1.13C19.095 0.833 18.222 0.6305 16.9455 0.572C15.6645 0.515 15.258 0.5 11.997 0.5H12ZM10.9245 2.663H12.0015C15.2055 2.663 15.585 2.6735 16.8495 2.732C18.0195 2.7845 18.6555 2.981 19.0785 3.1445C19.638 3.362 20.0385 3.623 20.4585 4.043C20.8785 4.463 21.138 4.862 21.3555 5.423C21.5205 5.8445 21.7155 6.4805 21.768 7.6505C21.8265 8.915 21.8385 9.2945 21.8385 12.497C21.8385 15.6995 21.8265 16.0805 21.768 17.345C21.7155 18.515 21.519 19.1495 21.3555 19.5725C21.1617 20.0929 20.8549 20.5637 20.457 20.951C20.037 21.371 19.638 21.6305 19.077 21.848C18.657 22.013 18.021 22.208 16.8495 22.262C15.585 22.319 15.2055 22.3325 12.0015 22.3325C8.7975 22.3325 8.4165 22.319 7.152 22.262C5.982 22.208 5.3475 22.013 4.9245 21.848C4.40375 21.6549 3.9324 21.3485 3.5445 20.951C3.14591 20.5634 2.83849 20.092 2.6445 19.571C2.481 19.1495 2.2845 18.5135 2.232 17.3435C2.175 16.079 2.163 15.6995 2.163 12.494C2.163 9.2885 2.175 8.912 2.232 7.6475C2.286 6.4775 2.481 5.8415 2.646 5.4185C2.8635 4.859 3.1245 4.4585 3.5445 4.0385C3.9645 3.6185 4.3635 3.359 4.9245 3.1415C5.3475 2.9765 5.982 2.7815 7.152 2.7275C8.259 2.6765 8.688 2.6615 10.9245 2.66V2.663ZM18.4065 4.655C18.2174 4.655 18.0301 4.69225 17.8554 4.76461C17.6807 4.83698 17.522 4.94305 17.3883 5.07677C17.2545 5.21048 17.1485 5.36923 17.0761 5.54394C17.0037 5.71864 16.9665 5.9059 16.9665 6.095C16.9665 6.2841 17.0037 6.47135 17.0761 6.64606C17.1485 6.82077 17.2545 6.97952 17.3883 7.11323C17.522 7.24695 17.6807 7.35302 17.8554 7.42539C18.0301 7.49775 18.2174 7.535 18.4065 7.535C18.7884 7.535 19.1547 7.38329 19.4247 7.11323C19.6948 6.84318 19.8465 6.47691 19.8465 6.095C19.8465 5.71309 19.6948 5.34682 19.4247 5.07677C19.1547 4.80671 18.7884 4.655 18.4065 4.655ZM12.0015 6.338C11.1841 6.32525 10.3723 6.47523 9.61347 6.77921C8.85459 7.08319 8.16377 7.53511 7.58123 8.10863C6.99868 8.68216 6.53605 9.36585 6.22026 10.1199C5.90448 10.8739 5.74185 11.6833 5.74185 12.5007C5.74185 13.3182 5.90448 14.1276 6.22026 14.8816C6.53605 15.6356 6.99868 16.3193 7.58123 16.8929C8.16377 17.4664 8.85459 17.9183 9.61347 18.2223C10.3723 18.5263 11.1841 18.6763 12.0015 18.6635C13.6193 18.6383 15.1623 17.9779 16.2975 16.8249C17.4326 15.6719 18.0689 14.1188 18.0689 12.5007C18.0689 10.8827 17.4326 9.32962 16.2975 8.17662C15.1623 7.02363 13.6193 6.36324 12.0015 6.338ZM12.0015 8.4995C12.5269 8.4995 13.0471 8.60298 13.5324 8.80402C14.0178 9.00506 14.4588 9.29974 14.8303 9.67122C15.2018 10.0427 15.4964 10.4837 15.6975 10.9691C15.8985 11.4544 16.002 11.9746 16.002 12.5C16.002 13.0254 15.8985 13.5456 15.6975 14.0309C15.4964 14.5163 15.2018 14.9573 14.8303 15.3288C14.4588 15.7003 14.0178 15.9949 13.5324 16.196C13.0471 16.397 12.5269 16.5005 12.0015 16.5005C10.9405 16.5005 9.92296 16.079 9.17272 15.3288C8.42248 14.5785 8.001 13.561 8.001 12.5C8.001 11.439 8.42248 10.4215 9.17272 9.67122C9.92296 8.92098 10.9405 8.4995 12.0015 8.4995Z" fill="#0D490D"/>
</svg>
